<svg width="290" height="217" viewBox="0 0 290 217" fill="none" xmlns="http://www.w3.org/2000/svg">
<path d="M289.586 190.268H0.413574V190.412H289.586V190.268Z" fill="#EBEBEB"/>
<path d="M260.611 199.573H241.456V199.718H260.611V199.573Z" fill="#EBEBEB"/>
<path d="M191.973 201.146H186.947V201.291H191.973V201.146Z" fill="#EBEBEB"/>
<path d="M240.878 194.206H213.308V194.351H240.878V194.206Z" fill="#EBEBEB"/>
<path d="M44.4486 195.178H30.7534V195.323H44.4486V195.178Z" fill="#EBEBEB"/>
<path d="M64.5463 195.178H49.5961V195.323H64.5463V195.178Z" fill="#EBEBEB"/>
<path d="M113.833 197.618H76.4487V197.763H113.833V197.618Z" fill="#EBEBEB"/>
<path d="M137.481 164.474H25.8088C24.9339 164.472 24.0955 164.123 23.4774 163.504C22.8593 162.885 22.5122 162.046 22.5122 161.171V4.19091C22.5198 3.3211 22.8703 2.48941 23.4876 1.8765C24.1048 1.2636 24.9389 0.918971 25.8088 0.91748H137.481C138.357 0.91748 139.197 1.26541 139.817 1.88472C140.436 2.50403 140.784 3.34399 140.784 4.21983V161.171C140.784 162.047 140.436 162.887 139.817 163.506C139.197 164.126 138.357 164.474 137.481 164.474V164.474ZM25.8088 1.03315C24.9723 1.03468 24.1706 1.36805 23.5796 1.96008C22.9887 2.55211 22.6568 3.35442 22.6568 4.19091V161.171C22.6568 162.008 22.9887 162.81 23.5796 163.402C24.1706 163.994 24.9723 164.327 25.8088 164.329H137.481C138.318 164.327 139.121 163.994 139.713 163.402C140.305 162.81 140.638 162.008 140.639 161.171V4.19091C140.638 3.35389 140.305 2.55159 139.713 1.95973C139.121 1.36786 138.318 1.03468 137.481 1.03315H25.8088Z" fill="#EBEBEB"/>
<path d="M262.583 164.474H150.905C150.029 164.472 149.19 164.124 148.571 163.505C147.952 162.886 147.604 162.047 147.602 161.171V4.19091C147.612 3.32057 147.963 2.48889 148.581 1.87614C149.2 1.26339 150.034 0.918954 150.905 0.91748H262.583C263.452 0.92049 264.285 1.26579 264.901 1.87853C265.517 2.49128 265.866 3.3221 265.874 4.19091V161.171C265.874 162.045 265.528 162.883 264.911 163.502C264.294 164.121 263.457 164.47 262.583 164.474V164.474ZM150.905 1.03315C150.068 1.03468 149.265 1.36786 148.674 1.95973C148.082 2.55159 147.749 3.35389 147.747 4.19091V161.171C147.749 162.008 148.082 162.81 148.674 163.402C149.265 163.994 150.068 164.327 150.905 164.329H262.583C263.42 164.327 264.223 163.994 264.814 163.402C265.406 162.81 265.739 162.008 265.741 161.171V4.19091C265.739 3.35389 265.406 2.55159 264.814 1.95973C264.223 1.36786 263.42 1.03468 262.583 1.03315H150.905Z" fill="#EBEBEB"/>
<path d="M255.701 15.9543H164.34V190.268H255.701V15.9543Z" fill="#EBEBEB"/>
<path d="M248.905 21.6396H171.135V190.268H248.905V21.6396Z" fill="#F5F5F5"/>
<path d="M220.96 35.624H199.092V41.6677H220.96V35.624Z" fill="white"/>
<path d="M230.809 95.6621H242.671C243.162 95.6621 243.632 95.8571 243.979 96.2042C244.327 96.5512 244.522 97.022 244.522 97.5128V97.5128C244.522 98.0037 244.327 98.4744 243.979 98.8215C243.632 99.1685 243.162 99.3635 242.671 99.3635H230.809C230.318 99.3635 229.847 99.1685 229.5 98.8215C229.153 98.4744 228.958 98.0037 228.958 97.5128V97.5128C228.958 97.022 229.153 96.5512 229.5 96.2042C229.847 95.8571 230.318 95.6621 230.809 95.6621Z" fill="white"/>
<path d="M101.879 34.502H41.1176V83.4704H101.879V34.502Z" fill="#EBEBEB"/>
<path d="M98.6107 80.2087V37.7639H44.3735V80.2087H98.6107Z" fill="#FAFAFA"/>
<path d="M92.2896 59.5444V57.5144H50.7007V59.5444H92.2896Z" fill="#E0E0E0"/>
<path d="M92.2896 64.1652V62.1353H50.7007V64.1652H92.2896Z" fill="#E0E0E0"/>
<path d="M92.2896 68.7805V66.7505H50.7007V68.7805H92.2896Z" fill="#E0E0E0"/>
<path d="M81.8621 73.4016V71.3716H61.1284V73.4016H81.8621Z" fill="#E0E0E0"/>
<path d="M50.7295 37.7638C50.7295 38.5974 50.5647 39.4227 50.2445 40.1923C49.9243 40.9619 49.455 41.6605 48.8637 42.248C48.2725 42.8356 47.5708 43.3003 46.7992 43.6156C46.0276 43.9309 45.2012 44.0905 44.3677 44.0851C43.2176 44.088 42.089 43.7738 41.1058 43.1771V34.502H49.781C50.3889 35.4823 50.7169 36.6104 50.7295 37.7638V37.7638Z" fill="#EBEBEB"/>
<path d="M101.879 34.502V43.1771C100.67 43.9044 99.2519 44.2063 97.8514 44.0347C96.4509 43.863 95.1481 43.2278 94.1504 42.2301C93.1527 41.2324 92.5175 39.9296 92.3459 38.5291C92.1743 37.1287 92.4761 35.711 93.2034 34.502H101.879Z" fill="#EBEBEB"/>
<path d="M50.7296 80.2145C50.7316 81.3619 50.4196 82.4879 49.8274 83.4706H41.1522V74.7954C42.1118 74.2209 43.2064 73.911 44.3247 73.8972C45.443 73.8835 46.545 74.1664 47.5183 74.7171C48.4917 75.2679 49.3017 76.0668 49.8658 77.0325C50.4299 77.9982 50.728 79.0961 50.7296 80.2145V80.2145Z" fill="#EBEBEB"/>
<path d="M101.878 74.7895V83.4647H93.2033C92.6066 82.4837 92.2924 81.3569 92.2953 80.2086C92.2965 79.0887 92.5947 77.9892 93.1594 77.0221C93.7241 76.055 94.5351 75.255 95.5099 74.7035C96.4846 74.1521 97.5881 73.869 98.7079 73.8831C99.8277 73.8972 100.924 74.208 101.884 74.7838L101.878 74.7895Z" fill="#EBEBEB"/>
<path d="M76.8122 48.9682C77.2887 46.0329 75.2954 43.2671 72.3601 42.7907C69.4248 42.3142 66.659 44.3075 66.1825 47.2428C65.7061 50.1781 67.6994 52.9439 70.6347 53.4203C73.57 53.8968 76.3357 51.9035 76.8122 48.9682Z" fill="#E0E0E0"/>
<path d="M150.98 120.722H30.7534V125.048H150.98V120.722Z" fill="#EBEBEB"/>
<path d="M149.939 125.048H110.877V190.268H149.939V125.048Z" fill="#F5F5F5"/>
<path d="M71.3013 125.048H32.2399V190.268H71.3013V125.048Z" fill="#F5F5F5"/>
<path d="M33.5758 125.048H32.2399V190.268H33.5758V125.048Z" fill="#EBEBEB"/>
<path d="M112.213 125.048H110.877V190.268H112.213V125.048Z" fill="#EBEBEB"/>
<path d="M52.754 110.294H45.5709L46.1493 120.722H52.1756L52.754 110.294Z" fill="#F0F0F0"/>
<path d="M115.117 116.199H77.5879V120.722H115.117V116.199Z" fill="#F0F0F0"/>
<path d="M115.123 116.731H97.8186V120.195H115.123V116.731Z" fill="#FAFAFA"/>
<path d="M145 216.386C206.931 216.386 257.135 213.455 257.135 209.839C257.135 206.223 206.931 203.292 145 203.292C83.0693 203.292 32.8646 206.223 32.8646 209.839C32.8646 213.455 83.0693 216.386 145 216.386Z" fill="#F5F5F5"/>
<path d="M197.462 169.343C207.581 169.343 215.784 161.14 215.784 151.021C215.784 140.902 207.581 132.699 197.462 132.699C187.343 132.699 179.14 140.902 179.14 151.021C179.14 161.14 187.343 169.343 197.462 169.343Z" fill="white"/>
<path d="M197.462 169.569C193.793 169.57 190.207 168.483 187.156 166.446C184.105 164.408 181.727 161.512 180.322 158.123C178.917 154.734 178.549 151.005 179.264 147.406C179.979 143.808 181.745 140.503 184.339 137.908C186.932 135.314 190.237 133.547 193.835 132.83C197.433 132.114 201.163 132.481 204.552 133.885C207.942 135.289 210.839 137.666 212.877 140.716C214.915 143.766 216.003 147.353 216.003 151.021C215.999 155.938 214.044 160.652 210.568 164.129C207.092 167.606 202.378 169.563 197.462 169.569ZM197.462 132.931C193.882 132.931 190.383 133.992 187.407 135.981C184.431 137.969 182.112 140.796 180.742 144.103C179.373 147.41 179.015 151.049 179.713 154.56C180.412 158.07 182.136 161.294 184.668 163.825C187.199 166.356 190.424 168.079 193.935 168.776C197.446 169.474 201.084 169.115 204.391 167.744C207.697 166.374 210.523 164.053 212.511 161.077C214.499 158.1 215.559 154.601 215.558 151.021C215.553 146.224 213.645 141.624 210.252 138.232C206.859 134.84 202.259 132.934 197.462 132.931V132.931Z" fill="#407BFF"/>
<path d="M200.411 140.634H194.512V161.408H200.411V140.634Z" fill="#407BFF"/>
<path d="M207.849 153.977V148.077H187.075V153.977H207.849Z" fill="#407BFF"/>
<path d="M73.3487 12.5248L72.9554 12.1026C75.6327 9.57174 79.0298 7.93482 82.6774 7.41797L82.7584 7.99631C79.2283 8.49416 75.9402 10.0766 73.3487 12.5248V12.5248Z" fill="#407BFF"/>
<path d="M69.0689 18.8461L68.531 18.6379C69.1148 17.1646 69.8928 15.7759 70.8444 14.5085L71.3071 14.8556C70.3895 16.082 69.637 17.4237 69.0689 18.8461V18.8461Z" fill="#407BFF"/>
<path d="M85.2046 41.0025C93.9693 41.0025 101.074 33.8974 101.074 25.1327C101.074 16.3681 93.9693 9.26294 85.2046 9.26294C76.44 9.26294 69.3348 16.3681 69.3348 25.1327C69.3348 33.8974 76.44 41.0025 85.2046 41.0025Z" fill="#407BFF"/>
<path d="M94.6839 17.9843C94.0727 17.3498 93.3411 16.8435 92.532 16.495C91.7228 16.1466 90.8523 15.9629 89.9713 15.9549C89.0903 15.9468 88.2166 16.1144 87.4011 16.448C86.5857 16.7816 85.845 17.2744 85.2222 17.8976C84.6 17.2745 83.8597 16.7819 83.0448 16.4484C82.2298 16.1149 81.3565 15.9473 80.476 15.9553C79.5955 15.9634 78.7255 16.147 77.9168 16.4954C77.1081 16.8438 76.377 17.35 75.7663 17.9843C74.5694 19.2789 73.9247 20.9892 73.9689 22.7517C74.0132 24.5143 74.7431 26.19 76.0034 27.4229L83.5219 34.9414C83.7474 35.167 84.0152 35.3459 84.31 35.468C84.6047 35.5901 84.9206 35.6529 85.2396 35.6529C85.5586 35.6529 85.8745 35.5901 86.1692 35.468C86.4639 35.3459 86.7317 35.167 86.9573 34.9414L94.4757 27.4229C95.7321 26.1862 96.4567 24.5083 96.4956 22.7459C96.5344 20.9834 95.8845 19.2752 94.6839 17.9843V17.9843Z" fill="white"/>
<path d="M85.2048 32.067C85.0882 32.063 84.9756 32.0239 84.8817 31.9547C84.7878 31.8856 84.7169 31.7896 84.6785 31.6795L81.3299 21.8881L79.9303 25.9828C79.8905 26.0966 79.8162 26.1951 79.7177 26.2646C79.6192 26.3341 79.5014 26.371 79.3809 26.3703H73.7767C73.6233 26.3703 73.4762 26.3094 73.3678 26.2009C73.2593 26.0924 73.1984 25.9453 73.1984 25.792C73.1984 25.6386 73.2593 25.4915 73.3678 25.383C73.4762 25.2745 73.6233 25.2136 73.7767 25.2136H78.9818L80.7978 19.9102C80.8372 19.7965 80.9109 19.698 81.0089 19.6282C81.1068 19.5585 81.2241 19.521 81.3444 19.521C81.4646 19.521 81.5819 19.5585 81.6798 19.6282C81.7778 19.698 81.8516 19.7965 81.8909 19.9102L85.2974 29.8751L88.6055 22.0848C88.6473 21.9855 88.716 21.8998 88.8039 21.8375C88.8918 21.7752 88.9953 21.7386 89.1029 21.732C89.2112 21.7257 89.319 21.7501 89.4141 21.8023C89.5092 21.8544 89.5877 21.9323 89.6407 22.0269L91.3873 25.2078H96.6561C96.8094 25.2078 96.9565 25.2688 97.065 25.3772C97.1735 25.4857 97.2344 25.6328 97.2344 25.7862C97.2344 25.9396 97.1735 26.0867 97.065 26.1951C96.9565 26.3036 96.8094 26.3645 96.6561 26.3645H91.0519C90.9484 26.3654 90.8466 26.3385 90.7571 26.2866C90.6676 26.2347 90.5936 26.1598 90.5429 26.0696L89.1723 23.6174L85.7369 31.7142C85.6926 31.8187 85.6186 31.9079 85.5239 31.9707C85.4293 32.0334 85.3183 32.0669 85.2048 32.067V32.067Z" fill="#407BFF"/>
<path d="M173.258 189.574H112.896C111.912 189.585 110.937 189.391 110.033 189.005C109.128 188.618 108.314 188.048 107.641 187.33C106.969 186.612 106.454 185.762 106.128 184.834C105.802 183.906 105.672 182.92 105.748 181.94L115.504 37.3532C115.675 35.2883 116.607 33.3605 118.119 31.9444C119.631 30.5282 121.616 29.7247 123.688 29.6902H184.061C185.048 29.6789 186.025 29.8735 186.932 30.2615C187.839 30.6495 188.654 31.2224 189.327 31.9436C190 32.6648 190.515 33.5184 190.839 34.4499C191.163 35.3814 191.289 36.3702 191.21 37.3532L181.436 181.94C181.26 183.999 180.326 185.919 178.815 187.33C177.305 188.74 175.324 189.54 173.258 189.574V189.574Z" fill="#263238"/>
<path d="M186.641 88.5714H185.12C184.844 88.5747 184.571 88.5205 184.318 88.4122C184.065 88.3039 183.837 88.1439 183.649 87.9425C183.461 87.741 183.318 87.5026 183.227 87.2424C183.137 86.9822 183.102 86.706 183.124 86.4315L184.992 58.7924C185.036 58.2143 185.295 57.6737 185.718 57.2774C186.141 56.8811 186.697 56.6581 187.277 56.6525H188.798C189.073 56.6491 189.346 56.7034 189.6 56.8117C189.853 56.92 190.081 57.08 190.269 57.2814C190.456 57.4828 190.6 57.7213 190.691 57.9815C190.781 58.2417 190.816 58.5179 190.793 58.7924L188.925 86.4315C188.882 87.0095 188.623 87.5502 188.2 87.9465C187.777 88.3427 187.22 88.5657 186.641 88.5714Z" fill="#263238"/>
<path d="M114.625 70.1337H113.11C112.886 70.1367 112.663 70.0931 112.457 70.0056C112.25 69.9182 112.064 69.7888 111.91 69.6257C111.757 69.4626 111.638 69.2693 111.563 69.0581C111.488 68.8469 111.457 68.6223 111.473 68.3987L112.15 58.4165C112.193 57.9478 112.407 57.5115 112.752 57.1913C113.096 56.871 113.547 56.6895 114.018 56.6814H115.539C115.762 56.6801 115.984 56.7249 116.189 56.813C116.394 56.9011 116.579 57.0306 116.733 57.1935C116.886 57.3563 117.003 57.5489 117.079 57.7594C117.154 57.9698 117.185 58.1935 117.17 58.4165L116.493 68.3987C116.452 68.8678 116.238 69.3049 115.893 69.6253C115.548 69.9458 115.096 70.127 114.625 70.1337V70.1337Z" fill="#407BFF"/>
<path d="M113.422 87.9584H111.901C111.677 87.9606 111.456 87.9164 111.25 87.8286C111.044 87.7408 110.859 87.6113 110.705 87.4483C110.552 87.2852 110.434 87.0923 110.359 86.8814C110.285 86.6706 110.254 86.4466 110.27 86.2234L110.947 76.2412C110.99 75.7725 111.204 75.3362 111.549 75.016C111.893 74.6957 112.344 74.5142 112.815 74.5061H114.347C114.571 74.5048 114.792 74.5496 114.998 74.6377C115.203 74.7258 115.388 74.8553 115.541 75.0182C115.694 75.181 115.812 75.3736 115.887 75.5841C115.962 75.7945 115.994 76.0182 115.978 76.2412L115.302 86.2234C115.26 86.6945 115.044 87.1331 114.697 87.4539C114.349 87.7747 113.895 87.9545 113.422 87.9584V87.9584Z" fill="#407BFF"/>
<path d="M171.98 189.574H111.618C110.634 189.585 109.659 189.391 108.755 189.005C107.85 188.618 107.036 188.048 106.363 187.33C105.691 186.612 105.175 185.762 104.849 184.834C104.523 183.906 104.394 182.92 104.469 181.94L114.232 37.3533C114.408 35.2876 115.347 33.3614 116.865 31.9494C118.383 30.5373 120.371 29.7403 122.444 29.7133H182.783C183.767 29.7023 184.743 29.8963 185.648 30.283C186.553 30.6696 187.367 31.2404 188.04 31.959C188.712 32.6776 189.228 33.5284 189.553 34.4571C189.879 35.3858 190.008 36.3721 189.931 37.3533L180.163 181.94C179.987 184 179.053 185.921 177.541 187.332C176.029 188.742 174.047 189.541 171.98 189.574V189.574Z" fill="#407BFF"/>
<path opacity="0.3" d="M105.106 180.32L114.637 39.2271H189.278L179.747 180.32H105.106Z" fill="white"/>
<path opacity="0.1" d="M134.572 180.32L161.211 39.2271H177.931L151.292 180.32H134.572Z" fill="white"/>
<path opacity="0.1" d="M121.941 180.32L148.58 39.2271H157.053L130.414 180.32H121.941Z" fill="white"/>
<path d="M145.081 33.2584H159.638C159.759 33.2563 159.88 33.2798 159.992 33.3273C160.104 33.3748 160.204 33.4453 160.287 33.5342C160.37 33.623 160.433 33.7283 160.473 33.8432C160.512 33.9581 160.527 34.0801 160.517 34.2011V34.2011C160.497 34.4559 160.383 34.6942 160.197 34.8695C160.011 35.0448 159.766 35.1447 159.511 35.1496H144.954C144.832 35.1509 144.711 35.1266 144.599 35.0785C144.487 35.0303 144.387 34.9593 144.304 34.87C144.221 34.7807 144.158 34.675 144.119 34.5598C144.079 34.4447 144.064 34.3225 144.075 34.2011V34.2011C144.095 33.9469 144.209 33.7093 144.395 33.5349C144.581 33.3606 144.826 33.262 145.081 33.2584V33.2584Z" fill="white"/>
<path d="M142.05 203.483L136.949 203.969L135.11 192.199L140.211 191.708L142.05 203.483Z" fill="#FFB573"/>
<path d="M136.365 201.476L141.709 199.816C141.801 199.784 141.902 199.789 141.991 199.83C142.079 199.871 142.148 199.945 142.183 200.036L143.918 204.275C143.961 204.389 143.981 204.51 143.974 204.631C143.968 204.753 143.937 204.872 143.883 204.98C143.828 205.089 143.752 205.185 143.659 205.263C143.565 205.341 143.457 205.398 143.34 205.432C141.408 206.01 139.569 206.143 137.238 207.167C134.514 208.323 133.375 209.873 130.443 209.873C128.343 209.873 127.869 207.948 128.76 207.682C132.808 206.455 132.276 205.449 135.214 202.286C135.52 201.919 135.917 201.64 136.365 201.476V201.476Z" fill="#263238"/>
<path opacity="0.2" d="M135.11 192.199L136.059 198.272L141.166 197.78L140.217 191.708L135.11 192.199Z" fill="black"/>
<path d="M138.8 43.4836C132.109 42.6971 125.452 43.2234 118.772 44.5188C117.659 44.7349 116.643 45.2998 115.873 46.1317C115.102 46.9636 114.617 48.0192 114.486 49.1456C113.763 55.5421 112.936 69.8793 116.164 91.2665L143.508 88.9531C143.56 85.0724 140.801 67.3924 143.08 49.0473C143.173 48.3997 143.136 47.74 142.97 47.1071C142.804 46.4742 142.513 45.8809 142.114 45.3623C141.715 44.8437 141.216 44.4103 140.647 44.0876C140.078 43.765 139.45 43.5596 138.8 43.4836Z" fill="white"/>
<path d="M122.878 48.9664L123.856 50.9212C123.901 51.0199 123.974 51.1036 124.065 51.163C124.156 51.2223 124.262 51.2548 124.37 51.2567L125.429 51.3145C125.618 51.3227 125.803 51.2655 125.955 51.1526L127.777 49.7935L125.527 48.1567L122.878 48.9664Z" fill="#263238"/>
<path d="M125.463 50.7534C125.078 50.5747 124.641 50.5398 124.232 50.6551C123.37 53.6914 122.427 62.4071 122.329 66.2704C124.943 73.8872 125.799 74.6564 125.799 74.6564L127.123 65.4897C127.123 65.4897 125.637 56.1147 125.463 50.7534Z" fill="#263238"/>
<path d="M133.011 30.2974C132.386 34.0682 131.854 40.9563 134.561 43.3911C132.577 45.4731 129.98 47.8848 125.527 48.1567C121.074 48.4285 121.762 45.3459 122.89 43.6976C127.048 42.5872 126.846 39.4873 126.03 36.5898L133.011 30.2974Z" fill="#FFB573"/>
<path d="M135.694 43.0614C135.379 42.9254 135.052 42.8189 134.717 42.7434C134.635 42.7217 134.548 42.7275 134.47 42.7599C134.391 42.7922 134.326 42.8494 134.283 42.9226C133.855 43.6514 132.548 46.9074 125.527 48.1567C126.684 48.8391 128.216 50.9559 128.876 51.9737C130.981 50.8807 136.458 47.613 135.937 43.3853C135.927 43.3155 135.899 43.2494 135.856 43.1928C135.814 43.1363 135.758 43.0912 135.694 43.0614V43.0614Z" fill="#F5F5F5"/>
<path d="M122.93 43.8711C122.945 43.8053 122.943 43.7368 122.925 43.6719C122.906 43.607 122.872 43.5478 122.825 43.4995C122.778 43.4512 122.72 43.4155 122.655 43.3955C122.591 43.3756 122.522 43.3721 122.456 43.3853C122.213 43.4325 121.973 43.4962 121.739 43.5761C121.685 43.5973 121.634 43.6266 121.589 43.6629C121.051 44.1603 118.119 48.3937 120.866 51.8176C121.444 50.8864 123.439 48.7755 125.527 48.1566C123.549 47.266 122.578 45.6061 122.93 43.8711Z" fill="#F5F5F5"/>
<path opacity="0.2" d="M130.165 32.8652L126.036 36.5898C126.235 37.2625 126.374 37.9515 126.452 38.6487C128.049 38.3769 130.194 36.5666 130.31 34.8894C130.388 34.2116 130.339 33.5251 130.165 32.8652V32.8652Z" fill="black"/>
<path d="M124.648 18.8981C121.085 20.2919 120.854 23.2183 121.178 26.4166C121.502 29.6148 124.983 27.4981 125.758 25.497C126.533 23.4959 129.581 16.9664 124.648 18.8981Z" fill="#263238"/>
<path d="M136.012 25.2772C135.023 30.3146 134.694 33.3047 131.814 35.6238C127.47 39.0939 121.589 36.0981 121.068 30.9045C120.6 26.2257 122.294 18.7593 127.482 17.3018C128.613 16.9687 129.812 16.9366 130.96 17.2086C132.107 17.4806 133.164 18.0473 134.025 18.8528C134.887 19.6582 135.523 20.6745 135.872 21.8012C136.22 22.9279 136.269 24.126 136.012 25.2772V25.2772Z" fill="#FFB573"/>
<path d="M135.804 29.4472C131.565 29.6727 132.462 27.2668 133.231 25.8846C134 24.5023 132.433 22.2179 133.456 21.0323C131.629 21.761 129.703 21.1595 127.256 19.4592C125.36 18.1348 122.983 23.4266 120.669 20.772C118.483 18.2678 120.513 14.4912 125.764 13.8839C131.016 13.2767 131.97 16.9896 135.417 16.66C138.864 16.3303 137.667 19.17 136.99 19.7483C139.882 19.9392 141.461 22.7037 135.804 29.4472Z" fill="#263238"/>
<path d="M136.325 20.1011C136.988 19.7373 137.542 19.2029 137.929 18.5532C138.317 17.9034 138.524 17.162 138.528 16.4055C139.673 18.4124 139.552 20.6911 136.325 20.1011Z" fill="#263238"/>
<path d="M125.336 30.656C125.797 30.7358 126.269 30.7215 126.724 30.6142C127.18 30.5069 127.608 30.3086 127.985 30.0314C127.996 30.0206 128.005 30.0076 128.012 29.9932C128.018 29.9787 128.021 29.9632 128.021 29.9475C128.021 29.9318 128.018 29.9163 128.012 29.9019C128.005 29.8875 127.996 29.8745 127.985 29.8637C127.962 29.8421 127.932 29.8301 127.901 29.8301C127.87 29.8301 127.84 29.8421 127.817 29.8637C127.396 30.1627 126.91 30.3596 126.399 30.4388C125.888 30.5181 125.366 30.4776 124.873 30.3206C124.842 30.3127 124.809 30.3167 124.78 30.3316C124.751 30.3465 124.729 30.3713 124.717 30.4015C124.708 30.4322 124.712 30.4652 124.727 30.4934C124.742 30.5215 124.768 30.5425 124.798 30.5519C124.974 30.6026 125.154 30.6375 125.336 30.656Z" fill="#263238"/>
<path d="M137.036 30.9913C136.244 32.0118 135.083 32.6805 133.803 32.8535C132.12 33.0733 131.559 31.506 132.265 30.0428C132.907 28.7241 134.578 27.0238 136.128 27.4807C137.678 27.9376 138.008 29.7189 137.036 30.9913Z" fill="#FFB573"/>
<path d="M135.365 140.513C135.567 125.412 137.499 89.4448 137.499 89.4448L116.181 91.2435C116.181 91.2435 120.42 128.31 122.977 143.717C125.637 159.731 133.797 197.248 133.797 197.248L142.473 196.508C142.473 196.508 139.303 152.189 135.365 140.513Z" fill="#263238"/>
<path d="M133.277 197.485L143.566 196.612L143.161 193.292L132.438 194.01L133.277 197.485Z" fill="#407BFF"/>
<path d="M128.413 25.578C128.361 25.9886 128.095 26.3009 127.835 26.272C127.574 26.2431 127.395 25.8845 127.453 25.4681C127.511 25.0517 127.771 24.7452 128.031 24.7741C128.291 24.803 128.471 25.1674 128.413 25.578Z" fill="#263238"/>
<path d="M123.694 25.2079C123.642 25.6243 123.376 25.9309 123.115 25.9019C122.855 25.873 122.676 25.5145 122.734 25.1038C122.791 24.6932 123.052 24.3809 123.312 24.4098C123.572 24.4387 123.752 24.7742 123.694 25.2079Z" fill="#263238"/>
<path d="M125.024 25.6938C124.327 26.7641 123.491 27.7366 122.537 28.5856C123.15 29.2275 124.416 29.054 124.416 29.054L125.024 25.6938Z" fill="#ED893E"/>
<path opacity="0.4" d="M120.709 25.312C120.623 25.9713 121.288 26.5208 122.207 26.6364C123.127 26.7521 123.977 26.2489 124.058 25.5896" fill="#407BFF"/>
<path opacity="0.4" d="M126.175 25.925C126.048 26.5786 126.69 27.1685 127.592 27.342C128.494 27.5155 129.379 27.0528 129.5 26.4051" fill="#407BFF"/>
<path d="M127.95 27.5214C127.846 27.5271 127.742 27.5271 127.638 27.5214C127.193 27.4682 126.776 27.2805 126.441 26.9835C126.295 26.8586 126.181 26.7004 126.108 26.5223C126.036 26.3442 126.007 26.1513 126.024 25.9598C125.731 25.832 125.418 25.7538 125.099 25.7285C124.778 25.6484 124.442 25.6484 124.122 25.7285C124.041 26.4341 123.162 26.9199 122.178 26.7984C121.734 26.7498 121.315 26.5639 120.981 26.2663C120.836 26.1408 120.722 25.9826 120.65 25.8046C120.577 25.6267 120.548 25.4341 120.565 25.2427L120.842 25.2774C120.831 25.4253 120.855 25.5738 120.912 25.7106C120.969 25.8474 121.058 25.9686 121.172 26.0639C121.463 26.3204 121.827 26.48 122.213 26.5208C123.046 26.6307 123.786 26.2432 123.861 25.6649C123.902 25.341 124.573 25.3641 125.128 25.4335C125.683 25.5029 126.342 25.6591 126.285 25.9772C126.272 26.1251 126.296 26.2738 126.353 26.4107C126.411 26.5476 126.5 26.6687 126.614 26.7637C126.909 27.0167 127.272 27.1778 127.657 27.2272C128.043 27.2765 128.434 27.2119 128.783 27.0413C128.918 26.9786 129.035 26.8844 129.126 26.7666C129.217 26.6488 129.278 26.511 129.304 26.3647V26.2259L136.44 27.1454L136.406 27.423L129.535 26.5382C129.485 26.6992 129.403 26.8483 129.293 26.9766C129.184 27.1048 129.05 27.2095 128.899 27.2842C128.606 27.4389 128.281 27.5203 127.95 27.5214Z" fill="#263238"/>
<path d="M130.229 23.762C130.27 23.7621 130.31 23.75 130.345 23.7273C130.401 23.6946 130.442 23.6411 130.459 23.5784C130.477 23.5157 130.469 23.4487 130.437 23.3918C130.258 23.0554 129.998 22.7686 129.682 22.5567C129.365 22.3448 129 22.2145 128.621 22.1773C128.556 22.1741 128.492 22.1966 128.444 22.2398C128.395 22.2831 128.365 22.3437 128.361 22.4086C128.358 22.4721 128.38 22.5343 128.422 22.5819C128.464 22.6295 128.523 22.6586 128.586 22.6631V22.6631C128.887 22.6983 129.174 22.8063 129.423 22.9777C129.672 23.149 129.875 23.3785 130.015 23.6463C130.037 23.6831 130.068 23.7133 130.106 23.7337C130.144 23.754 130.186 23.7638 130.229 23.762V23.762Z" fill="#263238"/>
<path d="M122.167 23.1087C122.207 23.1126 122.247 23.1067 122.284 23.0916C122.322 23.0765 122.355 23.0526 122.381 23.0219C122.568 22.777 122.81 22.5793 123.087 22.4447C123.364 22.3102 123.669 22.2424 123.977 22.2469C124.009 22.2501 124.041 22.2469 124.072 22.2376C124.103 22.2282 124.131 22.2129 124.156 22.1925C124.181 22.172 124.201 22.1469 124.216 22.1185C124.231 22.0902 124.24 22.0591 124.243 22.0271C124.247 21.996 124.245 21.9643 124.237 21.934C124.228 21.9037 124.214 21.8753 124.195 21.8505C124.175 21.8258 124.151 21.8051 124.124 21.7898C124.096 21.7744 124.066 21.7647 124.035 21.7611C123.646 21.7509 123.261 21.832 122.909 21.9977C122.558 22.1634 122.25 22.4092 122.011 22.7154C121.969 22.7645 121.949 22.828 121.955 22.8919C121.96 22.9559 121.991 23.0151 122.04 23.0566C122.077 23.0837 122.121 23.1016 122.167 23.1087Z" fill="#263238"/>
<path d="M153.126 138.078C148.701 115.337 147.706 97.5532 143.508 88.9185L122.855 91.2318C122.855 91.2318 135.156 125.117 141.165 139.582C147.406 154.618 159.724 180.309 159.724 180.309H170.042C170.042 180.309 160.413 148.436 153.126 138.078Z" fill="#263238"/>
<path d="M87.6627 51.9911L85.4303 50.5799C85.068 50.3465 84.6358 50.246 84.2076 50.2956C83.7794 50.3451 83.3817 50.5417 83.0823 50.8518L81.567 52.448C81.4038 52.6203 81.2777 52.8242 81.1964 53.0472C81.1152 53.2701 81.0805 53.5074 81.0946 53.7443C81.1087 53.9811 81.1712 54.2126 81.2784 54.4244C81.3855 54.6361 81.5349 54.8237 81.7174 54.9754L82.7989 55.9007C83.7396 56.6979 84.837 57.289 86.0202 57.6358L89.2879 58.6016L91.4336 56.2882C92.0871 53.8765 87.6627 51.9911 87.6627 51.9911Z" fill="#FFB573"/>
<path d="M120.709 50.9096C119.9 52.8876 119.107 54.7267 118.246 56.6063C117.384 58.486 116.511 60.3425 115.545 62.1874C114.579 64.0323 113.549 65.8656 112.381 67.7048C111.803 68.6186 111.161 69.5324 110.432 70.4519C109.649 71.4659 108.757 72.391 107.772 73.2106C107.122 73.7421 106.404 74.1855 105.638 74.5293C105.395 74.6218 105.169 74.7143 104.903 74.7953L104.498 74.9052C104.295 74.9552 104.088 74.9919 103.88 75.0151C103.175 75.0945 102.461 75.0435 101.774 74.8647C100.916 74.6244 100.1 74.2517 99.3569 73.7601C98.8001 73.4126 98.2686 73.0261 97.7664 72.6034C96.0973 71.1461 94.5589 69.5457 93.1686 67.8205C91.8211 66.2011 90.5487 64.5759 89.3284 62.9161C88.1081 61.2562 86.934 59.6253 85.7311 57.8845L92.1276 53.7551C94.1462 57.0136 96.3797 60.1339 98.8132 63.0954C99.9319 64.4671 101.164 65.7421 102.497 66.9067C102.756 67.118 103.028 67.3112 103.313 67.485C103.527 67.6296 103.741 67.6874 103.59 67.6354C103.387 67.5795 103.174 67.5676 102.966 67.6007C102.882 67.6084 102.798 67.6239 102.717 67.647H102.671C102.642 67.647 102.642 67.647 102.636 67.647C102.768 67.561 102.893 67.4664 103.012 67.3636C103.54 66.8844 104.019 66.3535 104.441 65.7789C104.932 65.1196 105.424 64.3793 105.892 63.6101C106.85 62.0108 107.722 60.3622 108.506 58.671C109.316 56.936 110.097 55.201 110.82 53.3965C111.543 51.5921 112.231 49.7587 112.815 48.0063L120.709 50.9096Z" fill="#407BFF"/>
<g opacity="0.6">
<path d="M120.709 50.9096C119.9 52.8876 119.107 54.7267 118.246 56.6063C117.384 58.486 116.511 60.3425 115.545 62.1874C114.579 64.0323 113.549 65.8656 112.381 67.7048C111.803 68.6186 111.161 69.5324 110.432 70.4519C109.649 71.4659 108.757 72.391 107.772 73.2106C107.122 73.7421 106.404 74.1855 105.638 74.5293C105.395 74.6218 105.169 74.7143 104.903 74.7953L104.498 74.9052C104.295 74.9552 104.088 74.9919 103.88 75.0151C103.175 75.0945 102.461 75.0435 101.774 74.8647C100.916 74.6244 100.1 74.2517 99.3569 73.7601C98.8001 73.4126 98.2686 73.0261 97.7664 72.6034C96.0973 71.1461 94.5589 69.5457 93.1686 67.8205C91.8211 66.2011 90.5487 64.5759 89.3284 62.9161C88.1081 61.2562 86.934 59.6253 85.7311 57.8845L92.1276 53.7551C94.1462 57.0136 96.3797 60.1339 98.8132 63.0954C99.9319 64.4671 101.164 65.7421 102.497 66.9067C102.756 67.118 103.028 67.3112 103.313 67.485C103.527 67.6296 103.741 67.6874 103.59 67.6354C103.387 67.5795 103.174 67.5676 102.966 67.6007C102.882 67.6084 102.798 67.6239 102.717 67.647H102.671C102.642 67.647 102.642 67.647 102.636 67.647C102.768 67.561 102.893 67.4664 103.012 67.3636C103.54 66.8844 104.019 66.3535 104.441 65.7789C104.932 65.1196 105.424 64.3793 105.892 63.6101C106.85 62.0108 107.722 60.3622 108.506 58.671C109.316 56.936 110.097 55.201 110.82 53.3965C111.543 51.5921 112.231 49.7587 112.815 48.0063L120.709 50.9096Z" fill="white"/>
</g>
<path d="M135.85 42.032C133.682 46.0804 125.961 61.5049 125.024 71.0244C121.606 62.3493 122.352 43.1598 122.352 43.1598C119.916 43.3972 117.526 43.9814 115.256 44.8948C114.524 45.1955 113.889 45.6929 113.423 46.3319C112.956 46.9709 112.676 47.7266 112.613 48.5152C111.947 58.4444 112.261 68.415 113.549 78.2827C115.95 96.9632 118.176 126.013 118.176 126.013C118.176 126.013 137.291 125.215 152.038 122.104C150.24 107.825 144.086 83.8926 144.028 77.4845C143.959 69.2373 144.15 53.1131 144.41 46.3811C144.454 45.4307 144.156 44.496 143.57 43.746C142.985 42.9961 142.15 42.4804 141.218 42.2922C139.448 41.9644 137.643 41.8768 135.85 42.032Z" fill="#407BFF"/>
<path opacity="0.7" d="M135.85 42.0321C133.682 46.0805 125.961 61.505 125.024 71.0245C121.606 62.3494 122.352 43.1599 122.352 43.1599C119.916 43.3973 117.526 43.9815 115.256 44.8949C114.524 45.1956 113.889 45.693 113.423 46.332C112.956 46.971 112.676 47.7267 112.613 48.5153C111.947 58.4445 112.261 68.4151 113.549 78.2828C115.95 96.9633 118.176 126.014 118.176 126.014C118.176 126.014 137.291 125.215 152.038 122.104C150.24 107.825 144.086 83.8927 144.028 77.4847C143.959 69.2374 144.15 53.1074 144.41 46.3755C144.465 45.4539 144.192 44.5426 143.641 43.8021C143.09 43.0615 142.295 42.5392 141.397 42.327C139.571 41.9692 137.704 41.8699 135.85 42.0321Z" fill="white"/>
<path d="M131.345 122.914C128.025 104.597 125.394 77.7217 125.18 74.4888H125.475C125.689 77.7217 128.326 104.563 131.64 122.879L131.345 122.914Z" fill="white"/>
<path d="M129.691 90.3296H112.063C111.707 90.3135 111.366 90.1826 111.091 89.9563C110.816 89.7301 110.621 89.4207 110.536 89.0746L104.643 61.6784C104.6 61.5288 104.593 61.3712 104.623 61.2184C104.652 61.0656 104.718 60.922 104.814 60.7995C104.91 60.6769 105.033 60.5789 105.175 60.5136C105.316 60.4482 105.471 60.4173 105.626 60.4234H123.248C123.605 60.4382 123.948 60.5686 124.224 60.795C124.501 61.0213 124.696 61.3313 124.781 61.6784L130.674 89.0746C130.717 89.2241 130.725 89.3818 130.695 89.5346C130.665 89.6874 130.6 89.831 130.504 89.9535C130.408 90.076 130.284 90.174 130.143 90.2394C130.001 90.3048 129.847 90.3357 129.691 90.3296V90.3296Z" fill="white"/>
<path d="M129.142 90.5609H111.213C110.851 90.544 110.503 90.4105 110.223 90.1801C109.943 89.9498 109.744 89.635 109.657 89.2827L103.66 61.4239C103.617 61.2712 103.611 61.1105 103.642 60.955C103.673 60.7995 103.74 60.6534 103.838 60.5288C103.936 60.4042 104.062 60.3046 104.206 60.238C104.35 60.1714 104.508 60.1398 104.666 60.1457H122.595C122.957 60.1626 123.305 60.2961 123.585 60.5265C123.865 60.7568 124.064 61.0716 124.151 61.4239L130.142 89.2827C130.186 89.435 130.194 89.5956 130.164 89.7512C130.134 89.9068 130.067 90.0531 129.969 90.1779C129.871 90.3027 129.745 90.4025 129.602 90.4691C129.458 90.5357 129.3 90.5672 129.142 90.5609Z" fill="#407BFF"/>
<path d="M131.195 74.8416L126.736 74.6739C126.2 74.6554 125.666 74.75 125.169 74.9515L122.855 75.8769C122.638 75.9628 122.441 76.0917 122.275 76.2558C122.109 76.4199 121.977 76.6158 121.889 76.8318C121.8 77.0478 121.756 77.2794 121.759 77.5128C121.762 77.7462 121.812 77.9766 121.907 78.1902L122.832 80.1913C123.019 80.5794 123.333 80.8914 123.723 81.0746C124.113 81.2579 124.554 81.3014 124.972 81.1976L127.522 80.5615C127.522 80.5615 132.311 80.1797 132.485 77.6697L131.195 74.8416Z" fill="#FFB573"/>
<path d="M143.508 44.5132C144.612 46.2482 145.624 47.8329 146.619 49.5332C147.614 51.2336 148.591 52.9165 149.511 54.6747C150.431 56.4329 151.304 58.2489 152.096 60.1921C152.508 61.2098 152.859 62.2506 153.149 63.3094C153.522 64.5998 153.693 65.9399 153.658 67.2826V67.5082C153.66 67.5467 153.66 67.5853 153.658 67.6239C153.658 67.8321 153.6 68.0403 153.559 68.2485C153.519 68.4567 153.467 68.6186 153.409 68.8268C153.351 69.035 153.288 69.1449 153.224 69.3068C153.003 69.8072 152.719 70.2775 152.38 70.7064C151.907 71.2969 151.37 71.8323 150.778 72.3027C149.868 73.0192 148.901 73.6595 147.886 74.217C146.1 75.1932 144.262 76.0698 142.38 76.8427C140.558 77.6177 138.742 78.3232 136.915 78.9883C135.087 79.6534 133.288 80.2954 131.386 80.9316L129.182 73.6444C130.917 73.1702 132.687 72.5861 134.416 71.9961C136.145 71.4062 137.886 70.7469 139.529 70.0587C141.141 69.3928 142.713 68.6339 144.236 67.7858C144.88 67.4293 145.493 67.0212 146.07 66.5655C146.221 66.4505 146.358 66.3164 146.475 66.1664C146.425 66.2225 146.386 66.2872 146.359 66.3573C146.359 66.4093 146.33 66.444 146.301 66.5077C146.278 66.5756 146.261 66.6452 146.249 66.7159C146.225 66.8047 146.209 66.8958 146.203 66.9877C146.203 67.0224 146.203 67.0282 146.203 67.0166V66.9761C146.162 66.4274 146.056 65.8855 145.885 65.3625C145.653 64.6053 145.379 63.8619 145.063 63.1359C144.356 61.5351 143.557 59.9767 142.669 58.4686C141.767 56.9187 140.807 55.3687 139.777 53.8419C138.748 52.3151 137.695 50.794 136.637 49.406L143.508 44.5132Z" fill="#407BFF"/>
<g opacity="0.7">
<path d="M143.508 44.5132C144.612 46.2482 145.624 47.8329 146.619 49.5332C147.614 51.2336 148.591 52.9165 149.511 54.6747C150.431 56.4329 151.304 58.2489 152.096 60.1921C152.508 61.2098 152.859 62.2506 153.149 63.3094C153.522 64.5998 153.693 65.9399 153.658 67.2826V67.5082C153.66 67.5467 153.66 67.5853 153.658 67.6239C153.658 67.8321 153.6 68.0403 153.559 68.2485C153.519 68.4567 153.467 68.6186 153.409 68.8268C153.351 69.035 153.288 69.1449 153.224 69.3068C153.003 69.8072 152.719 70.2775 152.38 70.7064C151.907 71.2969 151.37 71.8323 150.778 72.3027C149.868 73.0192 148.901 73.6595 147.886 74.217C146.1 75.1932 144.262 76.0698 142.38 76.8427C140.558 77.6177 138.742 78.3232 136.915 78.9883C135.087 79.6534 133.288 80.2954 131.386 80.9316L129.182 73.6444C130.917 73.1702 132.687 72.5861 134.416 71.9961C136.145 71.4062 137.886 70.7469 139.529 70.0587C141.141 69.3928 142.713 68.6339 144.236 67.7858C144.88 67.4293 145.493 67.0212 146.07 66.5655C146.221 66.4505 146.358 66.3164 146.475 66.1664C146.425 66.2225 146.386 66.2872 146.359 66.3573C146.359 66.4093 146.33 66.444 146.301 66.5077C146.278 66.5756 146.261 66.6452 146.249 66.7159C146.225 66.8047 146.209 66.8958 146.203 66.9877C146.203 67.0224 146.203 67.0282 146.203 67.0166V66.9761C146.162 66.4274 146.056 65.8855 145.885 65.3625C145.653 64.6053 145.379 63.8619 145.063 63.1359C144.356 61.5351 143.557 59.9767 142.669 58.4686C141.767 56.9187 140.807 55.3687 139.777 53.8419C138.748 52.3151 137.695 50.794 136.637 49.406L143.508 44.5132Z" fill="white"/>
</g>
<path d="M137.655 64.5817C137.616 64.5813 137.579 64.5709 137.545 64.5517C137.512 64.5324 137.484 64.5049 137.464 64.4718C137.447 64.4466 137.436 64.4182 137.43 64.3883C137.424 64.3584 137.425 64.3277 137.431 64.298C137.438 64.2683 137.45 64.2402 137.468 64.2154C137.485 64.1906 137.508 64.1696 137.534 64.1538L138.436 63.5754C139.278 63.0443 139.939 62.27 140.331 61.355C140.724 60.44 140.829 59.4275 140.633 58.4513L138.817 49.2556C138.685 48.568 138.324 47.9454 137.793 47.4884C137.262 47.0314 136.593 46.7668 135.893 46.7374C135.194 46.708 134.504 46.9154 133.937 47.3262C133.37 47.737 132.958 48.3271 132.768 49.0011L130.194 58.0175C129.913 58.9706 129.929 59.9866 130.239 60.9308C130.548 61.8749 131.138 62.7024 131.929 63.3036L132.785 63.9513C132.834 63.989 132.865 64.0442 132.872 64.1049C132.88 64.1656 132.863 64.2268 132.826 64.2752C132.808 64.2989 132.785 64.3187 132.759 64.3336C132.733 64.3485 132.705 64.3581 132.675 64.3618C132.646 64.3656 132.616 64.3634 132.587 64.3555C132.558 64.3476 132.531 64.3341 132.508 64.3157L131.698 63.6737C130.828 63.0188 130.178 62.1149 129.834 61.0819C129.49 60.049 129.469 58.9358 129.772 57.8903L132.352 48.8739C132.573 48.104 133.047 47.4308 133.697 46.9623C134.346 46.4939 135.135 46.2573 135.935 46.2907C136.736 46.324 137.502 46.6253 138.11 47.1462C138.719 47.6671 139.135 48.3774 139.292 49.163L141.108 58.3645C141.322 59.431 141.207 60.5374 140.779 61.5372C140.35 62.537 139.628 63.3829 138.708 63.9629L137.8 64.5412C137.779 64.5574 137.756 64.5693 137.731 64.5763C137.707 64.5833 137.681 64.5851 137.655 64.5817V64.5817Z" fill="#263238"/>
<path d="M139.043 49.4464L132.548 49.1746C132.518 49.1731 132.488 49.1656 132.461 49.1526C132.433 49.1396 132.408 49.1213 132.388 49.0987C132.368 49.0762 132.352 49.0498 132.342 49.0211C132.331 48.9925 132.327 48.9621 132.328 48.9317C132.334 48.8714 132.362 48.8154 132.407 48.7747C132.452 48.734 132.511 48.7116 132.571 48.7119L139.06 48.9837C139.091 48.9852 139.121 48.9927 139.148 49.0057C139.176 49.0187 139.2 49.037 139.221 49.0596C139.241 49.0822 139.257 49.1085 139.267 49.1372C139.277 49.1659 139.282 49.1963 139.28 49.2266C139.279 49.2568 139.273 49.2864 139.26 49.3139C139.248 49.3414 139.23 49.3661 139.208 49.3866C139.186 49.4071 139.16 49.4229 139.132 49.4332C139.103 49.4435 139.073 49.448 139.043 49.4464Z" fill="#263238"/>
<path d="M135.885 46.7512C135.825 46.7498 135.768 46.7258 135.725 46.6839C135.682 46.6421 135.657 46.5855 135.654 46.5257C135.654 45.369 135.295 43.3621 134.214 42.9226C134.184 42.9125 134.156 42.8965 134.133 42.8754C134.109 42.8543 134.09 42.8286 134.077 42.7999C134.064 42.7712 134.057 42.7401 134.056 42.7086C134.055 42.677 134.061 42.6456 134.073 42.6163C134.085 42.5871 134.103 42.5606 134.125 42.5384C134.148 42.5163 134.174 42.499 134.204 42.4875C134.233 42.4761 134.265 42.4709 134.296 42.4721C134.328 42.4733 134.359 42.481 134.387 42.4946C135.989 43.1539 136.122 46.1729 136.122 46.543C136.122 46.6039 136.099 46.6626 136.057 46.7067C136.015 46.7509 135.958 46.7772 135.897 46.7801L135.885 46.7512Z" fill="#263238"/>
<path d="M116.019 54.611H115.973C115.913 54.5985 115.861 54.5629 115.827 54.512C115.794 54.4611 115.782 54.399 115.794 54.3392C116.557 50.5395 119.715 44.542 122.497 42.7723C122.522 42.7565 122.55 42.7459 122.58 42.7412C122.609 42.7364 122.639 42.7376 122.668 42.7445C122.698 42.7515 122.725 42.7642 122.749 42.7819C122.773 42.7996 122.793 42.8219 122.809 42.8475C122.826 42.8723 122.837 42.9002 122.843 42.9297C122.849 42.9591 122.848 42.9894 122.842 43.0186C122.835 43.0479 122.823 43.0755 122.805 43.0997C122.788 43.124 122.765 43.1444 122.739 43.1598C120.05 44.8601 116.985 50.6783 116.245 54.4202C116.235 54.4733 116.208 54.5214 116.166 54.5563C116.125 54.5911 116.073 54.6105 116.019 54.611Z" fill="#263238"/>
<path d="M117.916 55.2066C117.557 56.1262 116.759 56.6814 116.181 56.4443C115.602 56.2072 115.377 55.2876 115.735 54.3449C116.094 53.4022 116.892 52.8701 117.47 53.113C118.049 53.3559 118.28 54.2871 117.916 55.2066Z" fill="white"/>
<path d="M133.184 64.1654C133.184 64.5933 132.918 64.9346 132.635 64.923C132.351 64.9114 132.132 64.5529 132.149 64.1191C132.166 63.6853 132.415 63.3441 132.698 63.3615C132.982 63.3788 133.202 63.7316 133.184 64.1654Z" fill="white"/>
<path d="M138.17 64.3735C138.17 64.8015 137.909 65.1427 137.62 65.1312C137.331 65.1196 137.123 64.761 137.14 64.3273C137.158 63.8935 137.4 63.5581 137.719 63.5696C138.037 63.5812 138.187 63.9571 138.17 64.3735Z" fill="white"/>
<path d="M236.245 56.3518L235.667 56.3171C235.763 55.0858 235.602 53.8479 235.195 52.682C234.787 51.5161 234.142 50.4476 233.299 49.5444C232.457 48.6412 231.436 47.9228 230.302 47.435C229.167 46.9472 227.943 46.7006 226.708 46.7108V46.1324C228.022 46.1213 229.325 46.3834 230.532 46.9021C231.74 47.4208 232.826 48.1848 233.723 49.1457C234.62 50.1065 235.307 51.2433 235.741 52.4838C236.175 53.7243 236.347 55.0415 236.245 56.3518V56.3518Z" fill="#407BFF"/>
<path d="M236.55 58.7767L236.215 63.5654L236.793 63.6059L237.129 58.8172L236.55 58.7767Z" fill="#407BFF"/>
<path d="M226.708 48.1566H186.802C184.623 48.1925 182.535 49.0376 180.944 50.5278C179.354 52.0179 178.374 54.0465 178.197 56.2188L177.832 61.5916C177.75 62.6254 177.883 63.6652 178.224 64.6445C178.566 65.6239 179.107 66.5214 179.814 67.2799C180.522 68.0384 181.379 68.6412 182.333 69.0499C183.286 69.4586 184.314 69.6643 185.351 69.6537H225.257L232.995 74.4251L234.221 56.2188C234.305 55.1853 234.172 54.1456 233.831 53.1663C233.491 52.1869 232.95 51.2893 232.243 50.5307C231.536 49.7721 230.679 49.1692 229.726 48.7604C228.773 48.3517 227.745 48.146 226.708 48.1566V48.1566Z" fill="#407BFF"/>
<path d="M224.684 55.8545H187.722V57.1962H224.684V55.8545Z" fill="white"/>
<path d="M224.36 60.6143H196.918V61.956H224.36V60.6143Z" fill="white"/>
<path d="M166.676 76.9003H207.461C208.521 76.8889 209.572 77.0986 210.547 77.5161C211.522 77.9337 212.399 78.5499 213.122 79.3254C213.846 80.1009 214.399 81.0187 214.748 82.0201C215.096 83.0216 215.232 84.0848 215.147 85.1418L214.777 90.636C214.594 92.856 213.592 94.9286 211.967 96.4516C210.341 97.9745 208.208 98.8391 205.98 98.8775H165.19L156.619 103.764L157.879 85.1418C158.061 82.9213 159.063 80.8479 160.689 79.3247C162.314 77.8015 164.449 76.9374 166.676 76.9003V76.9003Z" fill="white"/>
<path opacity="0.15" d="M166.676 76.9003H207.461C208.521 76.8889 209.572 77.0986 210.547 77.5161C211.522 77.9337 212.399 78.5499 213.122 79.3254C213.846 80.1009 214.399 81.0187 214.748 82.0201C215.096 83.0216 215.232 84.0848 215.147 85.1418L214.777 90.636C214.594 92.856 213.592 94.9286 211.967 96.4516C210.341 97.9745 208.208 98.8391 205.98 98.8775H165.19L156.619 103.764L157.879 85.1418C158.061 82.9213 159.063 80.8479 160.689 79.3247C162.314 77.8015 164.449 76.9374 166.676 76.9003V76.9003Z" fill="#407BFF"/>
<path opacity="0.5" d="M205.39 84.7717H167.59V86.1482H205.39V84.7717Z" fill="#407BFF"/>
<path opacity="0.5" d="M182.199 89.6355H167.26V91.012H182.199V89.6355Z" fill="#407BFF"/>
<path opacity="0.5" d="M195.403 89.6355H185.86V91.012H195.403V89.6355Z" fill="#407BFF"/>
</svg>
