<svg width="390" height="338" viewBox="0 0 390 338" fill="none" xmlns="http://www.w3.org/2000/svg">
<circle opacity="0.2" cx="199.5" cy="66.5" r="271.5" fill="#658BFF"/>
<circle opacity="0.2" cx="418" cy="66" r="196" fill="#658BFF"/>
<path d="M339.586 284.268H50.4136V284.412H339.586V284.268Z" fill="#EBEBEB"/>
<path d="M310.611 293.573H291.456V293.718H310.611V293.573Z" fill="#EBEBEB"/>
<path d="M241.973 295.146H236.947V295.291H241.973V295.146Z" fill="#EBEBEB"/>
<path d="M290.878 288.206H263.308V288.351H290.878V288.206Z" fill="#EBEBEB"/>
<path d="M94.4486 289.178H80.7534V289.323H94.4486V289.178Z" fill="#EBEBEB"/>
<path d="M114.546 289.178H99.5961V289.323H114.546V289.178Z" fill="#EBEBEB"/>
<path d="M163.833 291.618H126.449V291.763H163.833V291.618Z" fill="#EBEBEB"/>
<path d="M187.481 258.474H75.8088C74.9339 258.472 74.0955 258.123 73.4774 257.504C72.8593 256.885 72.5122 256.046 72.5122 255.171V98.1909C72.5198 97.3211 72.8703 96.4894 73.4876 95.8765C74.1048 95.2636 74.9389 94.919 75.8088 94.9175H187.481C188.357 94.9175 189.197 95.2654 189.817 95.8847C190.436 96.504 190.784 97.344 190.784 98.2198V255.171C190.784 256.047 190.436 256.887 189.817 257.506C189.197 258.126 188.357 258.474 187.481 258.474ZM75.8088 95.0331C74.9723 95.0347 74.1706 95.368 73.5796 95.9601C72.9887 96.5521 72.6568 97.3544 72.6568 98.1909V255.171C72.6568 256.008 72.9887 256.81 73.5796 257.402C74.1706 257.994 74.9723 258.327 75.8088 258.329H187.481C188.318 258.327 189.121 257.994 189.713 257.402C190.305 256.811 190.638 256.008 190.639 255.171V98.1909C190.638 97.3539 190.305 96.5516 189.713 95.9597C189.121 95.3679 188.318 95.0347 187.481 95.0331H75.8088Z" fill="#EBEBEB"/>
<path d="M312.583 258.474H200.905C200.029 258.472 199.19 258.124 198.571 257.505C197.952 256.886 197.604 256.047 197.602 255.171V98.1909C197.612 97.3206 197.963 96.4889 198.581 95.8761C199.2 95.2634 200.034 94.919 200.905 94.9175H312.583C313.452 94.9205 314.285 95.2658 314.901 95.8785C315.517 96.4913 315.866 97.3221 315.874 98.1909V255.171C315.874 256.045 315.528 256.883 314.911 257.502C314.294 258.121 313.457 258.47 312.583 258.474ZM200.905 95.0331C200.068 95.0347 199.265 95.3679 198.674 95.9597C198.082 96.5516 197.749 97.3539 197.747 98.1909V255.171C197.749 256.008 198.082 256.811 198.674 257.402C199.265 257.994 200.068 258.327 200.905 258.329H312.583C313.42 258.327 314.223 257.994 314.814 257.402C315.406 256.811 315.739 256.008 315.741 255.171V98.1909C315.739 97.3539 315.406 96.5516 314.814 95.9597C314.223 95.3679 313.42 95.0347 312.583 95.0331H200.905Z" fill="#EBEBEB"/>
<path d="M305.701 109.954H214.34V284.268H305.701V109.954Z" fill="#EBEBEB"/>
<path d="M298.905 115.64H221.135V284.268H298.905V115.64Z" fill="#F5F5F5"/>
<path d="M270.96 129.624H249.092V135.668H270.96V129.624Z" fill="white"/>
<path d="M280.809 189.662H292.671C293.162 189.662 293.632 189.857 293.979 190.204C294.327 190.551 294.522 191.022 294.522 191.513C294.522 192.004 294.327 192.474 293.979 192.821C293.632 193.169 293.162 193.364 292.671 193.364H280.809C280.318 193.364 279.847 193.169 279.5 192.821C279.153 192.474 278.958 192.004 278.958 191.513C278.958 191.022 279.153 190.551 279.5 190.204C279.847 189.857 280.318 189.662 280.809 189.662Z" fill="white"/>
<path d="M151.879 128.502H91.1176V177.47H151.879V128.502Z" fill="#EBEBEB"/>
<path d="M148.611 174.209V131.764H94.3735V174.209H148.611Z" fill="#FAFAFA"/>
<path d="M142.29 153.544V151.514H100.701V153.544H142.29Z" fill="#E0E0E0"/>
<path d="M142.29 158.165V156.135H100.701V158.165H142.29Z" fill="#E0E0E0"/>
<path d="M142.29 162.78V160.75H100.701V162.78H142.29Z" fill="#E0E0E0"/>
<path d="M131.862 167.402V165.372H111.128V167.402H131.862Z" fill="#E0E0E0"/>
<path d="M100.729 131.764C100.73 132.597 100.565 133.423 100.244 134.192C99.9243 134.962 99.455 135.661 98.8637 136.248C98.2725 136.836 97.5708 137.3 96.7992 137.616C96.0276 137.931 95.2012 138.09 94.3677 138.085C93.2176 138.088 92.089 137.774 91.1058 137.177V128.502H99.781C100.389 129.482 100.717 130.61 100.729 131.764Z" fill="#EBEBEB"/>
<path d="M151.879 128.502V137.177C150.67 137.904 149.252 138.206 147.851 138.035C146.451 137.863 145.148 137.228 144.15 136.23C143.153 135.232 142.518 133.93 142.346 132.529C142.174 131.129 142.476 129.711 143.203 128.502H151.879Z" fill="#EBEBEB"/>
<path d="M100.73 174.215C100.732 175.362 100.42 176.488 99.8274 177.471H91.1522V168.795C92.1118 168.221 93.2064 167.911 94.3247 167.897C95.443 167.883 96.545 168.166 97.5183 168.717C98.4917 169.268 99.3017 170.067 99.8658 171.032C100.43 171.998 100.728 173.096 100.73 174.215Z" fill="#EBEBEB"/>
<path d="M151.878 168.79V177.465H143.203C142.607 176.484 142.292 175.357 142.295 174.209C142.297 173.089 142.595 171.989 143.159 171.022C143.724 170.055 144.535 169.255 145.51 168.704C146.485 168.152 147.588 167.869 148.708 167.883C149.828 167.897 150.924 168.208 151.884 168.784L151.878 168.79Z" fill="#EBEBEB"/>
<path d="M126.812 142.968C127.289 140.033 125.295 137.267 122.36 136.791C119.425 136.314 116.659 138.307 116.183 141.243C115.706 144.178 117.699 146.944 120.635 147.42C123.57 147.897 126.336 145.904 126.812 142.968Z" fill="#E0E0E0"/>
<path d="M200.98 214.722H80.7534V219.048H200.98V214.722Z" fill="#EBEBEB"/>
<path d="M199.939 219.048H160.877V284.268H199.939V219.048Z" fill="#F5F5F5"/>
<path d="M121.301 219.048H82.2399V284.268H121.301V219.048Z" fill="#F5F5F5"/>
<path d="M83.5758 219.048H82.2399V284.268H83.5758V219.048Z" fill="#EBEBEB"/>
<path d="M162.213 219.048H160.877V284.268H162.213V219.048Z" fill="#EBEBEB"/>
<path d="M102.754 204.294H95.5709L96.1493 214.722H102.176L102.754 204.294Z" fill="#F0F0F0"/>
<path d="M165.117 210.199H127.588V214.722H165.117V210.199Z" fill="#F0F0F0"/>
<path d="M165.123 210.731H147.819V214.195H165.123V210.731Z" fill="#FAFAFA"/>
<path d="M195 310.386C256.931 310.386 307.135 307.455 307.135 303.839C307.135 300.223 256.931 297.292 195 297.292C133.069 297.292 82.8646 300.223 82.8646 303.839C82.8646 307.455 133.069 310.386 195 310.386Z" fill="#F5F5F5"/>
<path d="M247.462 263.343C257.581 263.343 265.784 255.14 265.784 245.021C265.784 234.902 257.581 226.699 247.462 226.699C237.343 226.699 229.14 234.902 229.14 245.021C229.14 255.14 237.343 263.343 247.462 263.343Z" fill="white"/>
<path d="M247.462 263.569C243.793 263.57 240.207 262.483 237.156 260.446C234.105 258.408 231.727 255.512 230.322 252.123C228.917 248.734 228.549 245.005 229.264 241.406C229.979 237.808 231.745 234.503 234.339 231.908C236.932 229.314 240.237 227.547 243.835 226.83C247.433 226.114 251.163 226.481 254.552 227.885C257.942 229.289 260.839 231.666 262.877 234.716C264.915 237.766 266.003 241.353 266.003 245.021C265.999 249.938 264.044 254.652 260.568 258.129C257.092 261.606 252.378 263.563 247.462 263.569ZM247.462 226.931C243.882 226.931 240.383 227.992 237.407 229.981C234.431 231.969 232.112 234.796 230.742 238.103C229.373 241.41 229.015 245.049 229.713 248.56C230.412 252.07 232.136 255.294 234.668 257.825C237.199 260.356 240.424 262.079 243.935 262.776C247.445 263.474 251.084 263.115 254.391 261.744C257.697 260.374 260.523 258.053 262.511 255.077C264.499 252.1 265.559 248.601 265.558 245.021C265.553 240.224 263.645 235.624 260.252 232.232C256.859 228.84 252.259 226.934 247.462 226.931Z" fill="#407BFF"/>
<path d="M250.411 234.634H244.512V255.408H250.411V234.634Z" fill="#407BFF"/>
<path d="M257.849 247.977V242.077H237.075V247.977H257.849Z" fill="#407BFF"/>
<path d="M123.349 106.525L122.955 106.103C125.633 103.572 129.03 101.935 132.677 101.418L132.758 101.996C129.228 102.494 125.94 104.077 123.349 106.525Z" fill="#407BFF"/>
<path d="M119.069 112.846L118.531 112.638C119.115 111.165 119.893 109.776 120.844 108.509L121.307 108.856C120.389 110.082 119.637 111.424 119.069 112.846Z" fill="#407BFF"/>
<path d="M135.205 135.003C143.969 135.003 151.074 127.897 151.074 119.133C151.074 110.368 143.969 103.263 135.205 103.263C126.44 103.263 119.335 110.368 119.335 119.133C119.335 127.897 126.44 135.003 135.205 135.003Z" fill="#407BFF"/>
<path d="M144.684 111.984C144.073 111.35 143.341 110.844 142.532 110.495C141.723 110.147 140.852 109.963 139.971 109.955C139.09 109.947 138.217 110.114 137.401 110.448C136.586 110.782 135.845 111.274 135.222 111.898C134.6 111.275 133.86 110.782 133.045 110.448C132.23 110.115 131.357 109.947 130.476 109.955C129.596 109.963 128.725 110.147 127.917 110.495C127.108 110.844 126.377 111.35 125.766 111.984C124.569 113.279 123.925 114.989 123.969 116.752C124.013 118.514 124.743 120.19 126.003 121.423L133.522 128.941C133.747 129.167 134.015 129.346 134.31 129.468C134.605 129.59 134.921 129.653 135.24 129.653C135.559 129.653 135.874 129.59 136.169 129.468C136.464 129.346 136.732 129.167 136.957 128.941L144.476 121.423C145.732 120.186 146.457 118.508 146.496 116.746C146.534 114.983 145.885 113.275 144.684 111.984Z" fill="white"/>
<path d="M135.205 126.067C135.088 126.063 134.976 126.024 134.882 125.955C134.788 125.886 134.717 125.79 134.679 125.68L131.33 115.888L129.93 119.983C129.891 120.097 129.816 120.195 129.718 120.265C129.619 120.334 129.501 120.371 129.381 120.37H123.777C123.623 120.37 123.476 120.309 123.368 120.201C123.259 120.092 123.198 119.945 123.198 119.792C123.198 119.639 123.259 119.491 123.368 119.383C123.476 119.275 123.623 119.214 123.777 119.214H128.982L130.798 113.91C130.837 113.797 130.911 113.698 131.009 113.628C131.107 113.558 131.224 113.521 131.344 113.521C131.465 113.521 131.582 113.558 131.68 113.628C131.778 113.698 131.852 113.797 131.891 113.91L135.297 123.875L138.605 116.085C138.647 115.985 138.716 115.9 138.804 115.837C138.892 115.775 138.995 115.739 139.103 115.732C139.211 115.726 139.319 115.75 139.414 115.802C139.509 115.854 139.588 115.932 139.641 116.027L141.387 119.208H146.656C146.809 119.208 146.957 119.269 147.065 119.377C147.173 119.486 147.234 119.633 147.234 119.786C147.234 119.94 147.173 120.087 147.065 120.195C146.957 120.304 146.809 120.365 146.656 120.365H141.052C140.948 120.365 140.847 120.338 140.757 120.287C140.668 120.235 140.594 120.16 140.543 120.07L139.172 117.617L135.737 125.714C135.693 125.819 135.619 125.908 135.524 125.971C135.429 126.033 135.318 126.067 135.205 126.067Z" fill="#407BFF"/>
<path d="M223.258 283.574H162.896C161.912 283.585 160.937 283.391 160.033 283.005C159.128 282.618 158.314 282.048 157.641 281.33C156.969 280.612 156.454 279.762 156.128 278.834C155.802 277.906 155.672 276.92 155.748 275.94L165.504 131.353C165.675 129.288 166.607 127.361 168.119 125.944C169.631 124.528 171.616 123.725 173.688 123.69H234.061C235.048 123.679 236.025 123.873 236.932 124.261C237.839 124.65 238.654 125.222 239.327 125.944C240 126.665 240.515 127.518 240.839 128.45C241.163 129.381 241.289 130.37 241.21 131.353L231.436 275.94C231.26 277.999 230.326 279.919 228.815 281.33C227.305 282.74 225.324 283.54 223.258 283.574Z" fill="#263238"/>
<path d="M236.641 182.571H235.12C234.844 182.575 234.571 182.52 234.318 182.412C234.065 182.304 233.837 182.144 233.649 181.942C233.461 181.741 233.318 181.503 233.227 181.242C233.137 180.982 233.102 180.706 233.124 180.431L234.992 152.792C235.036 152.214 235.295 151.674 235.718 151.277C236.141 150.881 236.697 150.658 237.277 150.652H238.798C239.073 150.649 239.346 150.703 239.6 150.812C239.853 150.92 240.081 151.08 240.269 151.281C240.456 151.483 240.6 151.721 240.691 151.981C240.781 152.242 240.816 152.518 240.793 152.792L238.925 180.431C238.882 181.01 238.623 181.55 238.2 181.946C237.777 182.343 237.22 182.566 236.641 182.571Z" fill="#263238"/>
<path d="M164.625 164.134H163.11C162.886 164.137 162.663 164.093 162.457 164.006C162.25 163.918 162.064 163.789 161.91 163.626C161.757 163.463 161.638 163.269 161.563 163.058C161.488 162.847 161.457 162.622 161.473 162.399L162.15 152.416C162.193 151.948 162.407 151.512 162.752 151.191C163.096 150.871 163.547 150.689 164.018 150.681H165.539C165.762 150.68 165.984 150.725 166.189 150.813C166.394 150.901 166.579 151.031 166.733 151.193C166.886 151.356 167.003 151.549 167.079 151.759C167.154 151.97 167.185 152.193 167.17 152.416L166.493 162.399C166.452 162.868 166.238 163.305 165.893 163.625C165.548 163.946 165.096 164.127 164.625 164.134Z" fill="#407BFF"/>
<path d="M163.422 181.958H161.901C161.677 181.961 161.456 181.916 161.25 181.829C161.044 181.741 160.859 181.611 160.705 181.448C160.552 181.285 160.434 181.092 160.359 180.881C160.285 180.671 160.254 180.447 160.27 180.223L160.947 170.241C160.99 169.773 161.204 169.336 161.549 169.016C161.893 168.696 162.344 168.514 162.815 168.506H164.347C164.571 168.505 164.792 168.55 164.998 168.638C165.203 168.726 165.388 168.855 165.541 169.018C165.694 169.181 165.812 169.374 165.887 169.584C165.962 169.795 165.994 170.018 165.978 170.241L165.302 180.223C165.26 180.694 165.044 181.133 164.697 181.454C164.349 181.775 163.895 181.955 163.422 181.958Z" fill="#407BFF"/>
<path d="M221.98 283.574H161.618C160.634 283.585 159.659 283.391 158.755 283.005C157.85 282.618 157.036 282.048 156.363 281.33C155.691 280.612 155.175 279.762 154.849 278.834C154.523 277.906 154.394 276.92 154.469 275.94L164.232 131.353C164.408 129.288 165.347 127.361 166.865 125.949C168.383 124.537 170.371 123.74 172.444 123.713H232.783C233.767 123.702 234.743 123.896 235.648 124.283C236.553 124.67 237.367 125.24 238.04 125.959C238.712 126.678 239.228 127.528 239.553 128.457C239.879 129.386 240.008 130.372 239.931 131.353L230.163 275.94C229.987 278 229.053 279.921 227.541 281.332C226.029 282.742 224.047 283.541 221.98 283.574Z" fill="#407BFF"/>
<path opacity="0.3" d="M155.106 274.32L164.637 133.227H239.278L229.747 274.32H155.106Z" fill="white"/>
<path opacity="0.1" d="M184.572 274.32L211.211 133.227H227.931L201.292 274.32H184.572Z" fill="white"/>
<path opacity="0.1" d="M171.941 274.32L198.58 133.227H207.053L180.414 274.32H171.941Z" fill="white"/>
<path d="M195.081 127.258H209.638C209.759 127.256 209.88 127.28 209.992 127.327C210.104 127.375 210.204 127.445 210.287 127.534C210.37 127.623 210.433 127.728 210.473 127.843C210.512 127.958 210.527 128.08 210.517 128.201C210.497 128.456 210.383 128.694 210.197 128.87C210.011 129.045 209.766 129.145 209.511 129.15H194.954C194.832 129.151 194.711 129.127 194.599 129.078C194.487 129.03 194.387 128.959 194.304 128.87C194.221 128.781 194.158 128.675 194.119 128.56C194.079 128.445 194.064 128.322 194.075 128.201C194.095 127.947 194.209 127.709 194.395 127.535C194.581 127.361 194.826 127.262 195.081 127.258Z" fill="white"/>
<path d="M192.05 297.483L186.949 297.969L185.11 286.199L190.211 285.708L192.05 297.483Z" fill="#FFB573"/>
<path d="M186.365 295.476L191.709 293.816C191.801 293.784 191.902 293.789 191.991 293.83C192.079 293.871 192.148 293.945 192.183 294.036L193.918 298.275C193.961 298.389 193.981 298.51 193.974 298.631C193.968 298.753 193.937 298.872 193.883 298.98C193.828 299.089 193.752 299.185 193.659 299.263C193.565 299.341 193.457 299.398 193.34 299.432C191.408 300.01 189.569 300.143 187.238 301.167C184.514 302.323 183.375 303.873 180.443 303.873C178.343 303.873 177.869 301.948 178.76 301.682C182.808 300.455 182.276 299.449 185.214 296.286C185.52 295.919 185.917 295.64 186.365 295.476Z" fill="#263238"/>
<path opacity="0.2" d="M185.11 286.199L186.059 292.272L191.166 291.78L190.217 285.708L185.11 286.199Z" fill="black"/>
<path d="M188.8 137.484C182.109 136.697 175.452 137.223 168.772 138.519C167.659 138.735 166.643 139.3 165.873 140.132C165.102 140.964 164.617 142.019 164.486 143.146C163.763 149.542 162.936 163.879 166.164 185.266L193.508 182.953C193.56 179.072 190.801 161.392 193.08 143.047C193.173 142.4 193.136 141.74 192.97 141.107C192.804 140.474 192.513 139.881 192.114 139.362C191.715 138.844 191.216 138.41 190.647 138.088C190.078 137.765 189.45 137.56 188.8 137.484Z" fill="white"/>
<path d="M172.878 142.966L173.856 144.921C173.901 145.02 173.974 145.104 174.065 145.163C174.156 145.222 174.262 145.255 174.37 145.257L175.429 145.315C175.618 145.323 175.803 145.266 175.955 145.153L177.777 143.793L175.527 142.157L172.878 142.966Z" fill="#263238"/>
<path d="M175.463 144.753C175.078 144.575 174.641 144.54 174.232 144.655C173.37 147.691 172.427 156.407 172.329 160.27C174.943 167.887 175.799 168.656 175.799 168.656L177.123 159.49C177.123 159.49 175.637 150.115 175.463 144.753Z" fill="#263238"/>
<path d="M183.011 124.297C182.386 128.068 181.854 134.956 184.561 137.391C182.577 139.473 179.98 141.885 175.527 142.157C171.074 142.428 171.762 139.346 172.89 137.698C177.048 136.587 176.846 133.487 176.03 130.59L183.011 124.297Z" fill="#FFB573"/>
<path d="M185.694 137.061C185.379 136.925 185.052 136.819 184.717 136.743C184.635 136.722 184.548 136.727 184.47 136.76C184.391 136.792 184.326 136.849 184.283 136.923C183.855 137.651 182.548 140.907 175.527 142.157C176.684 142.839 178.216 144.956 178.876 145.974C180.981 144.881 186.458 141.613 185.937 137.385C185.927 137.315 185.899 137.249 185.856 137.193C185.814 137.136 185.758 137.091 185.694 137.061Z" fill="#F5F5F5"/>
<path d="M172.93 137.871C172.945 137.805 172.943 137.737 172.925 137.672C172.906 137.607 172.872 137.548 172.825 137.499C172.778 137.451 172.72 137.415 172.655 137.396C172.591 137.376 172.522 137.372 172.456 137.385C172.213 137.432 171.973 137.496 171.739 137.576C171.685 137.597 171.634 137.627 171.589 137.663C171.051 138.16 168.119 142.394 170.866 145.818C171.444 144.886 173.439 142.775 175.527 142.157C173.549 141.266 172.578 139.606 172.93 137.871Z" fill="#F5F5F5"/>
<path opacity="0.2" d="M180.165 126.865L176.036 130.59C176.235 131.262 176.374 131.951 176.452 132.649C178.049 132.377 180.194 130.567 180.31 128.889C180.388 128.212 180.339 127.525 180.165 126.865Z" fill="black"/>
<path d="M174.648 112.898C171.085 114.292 170.854 117.218 171.178 120.417C171.502 123.615 174.983 121.498 175.758 119.497C176.533 117.496 179.581 110.966 174.648 112.898Z" fill="#263238"/>
<path d="M186.012 119.277C185.023 124.315 184.694 127.305 181.814 129.624C177.47 133.094 171.589 130.098 171.068 124.905C170.6 120.226 172.294 112.759 177.482 111.302C178.613 110.969 179.812 110.937 180.96 111.209C182.107 111.481 183.164 112.047 184.025 112.853C184.887 113.658 185.523 114.674 185.872 115.801C186.22 116.928 186.269 118.126 186.012 119.277Z" fill="#FFB573"/>
<path d="M185.804 123.447C181.565 123.673 182.462 121.267 183.231 119.885C184 118.502 182.433 116.218 183.456 115.032C181.629 115.761 179.703 115.159 177.256 113.459C175.36 112.135 172.983 117.427 170.669 114.772C168.483 112.268 170.513 108.491 175.764 107.884C181.016 107.277 181.97 110.99 185.417 110.66C188.864 110.33 187.667 113.17 186.99 113.748C189.882 113.939 191.461 116.704 185.804 123.447Z" fill="#263238"/>
<path d="M186.325 114.101C186.988 113.737 187.542 113.203 187.929 112.553C188.317 111.903 188.524 111.162 188.528 110.406C189.673 112.412 189.552 114.691 186.325 114.101Z" fill="#263238"/>
<path d="M175.336 124.656C175.797 124.736 176.269 124.722 176.724 124.614C177.18 124.507 177.608 124.309 177.985 124.031C177.996 124.021 178.005 124.008 178.012 123.993C178.018 123.979 178.021 123.963 178.021 123.948C178.021 123.932 178.018 123.916 178.012 123.902C178.005 123.887 177.996 123.874 177.985 123.864C177.962 123.842 177.932 123.83 177.901 123.83C177.87 123.83 177.84 123.842 177.817 123.864C177.396 124.163 176.91 124.36 176.399 124.439C175.888 124.518 175.366 124.478 174.873 124.321C174.842 124.313 174.809 124.317 174.78 124.332C174.751 124.346 174.729 124.371 174.717 124.402C174.708 124.432 174.712 124.465 174.727 124.493C174.742 124.522 174.768 124.543 174.798 124.552C174.974 124.603 175.154 124.637 175.336 124.656Z" fill="#263238"/>
<path d="M187.036 124.991C186.244 126.012 185.083 126.681 183.803 126.854C182.12 127.073 181.559 125.506 182.265 124.043C182.907 122.724 184.578 121.024 186.128 121.481C187.678 121.938 188.008 123.719 187.036 124.991Z" fill="#FFB573"/>
<path d="M185.365 234.513C185.567 219.412 187.499 183.445 187.499 183.445L166.181 185.243C166.181 185.243 170.42 222.31 172.977 237.717C175.637 253.731 183.797 291.248 183.797 291.248L192.473 290.508C192.473 290.508 189.303 246.189 185.365 234.513Z" fill="#263238"/>
<path d="M183.277 291.485L193.566 290.612L193.161 287.292L182.438 288.01L183.277 291.485Z" fill="#407BFF"/>
<path d="M178.413 119.578C178.361 119.989 178.095 120.301 177.835 120.272C177.574 120.243 177.395 119.885 177.453 119.468C177.511 119.052 177.771 118.745 178.031 118.774C178.291 118.803 178.471 119.167 178.413 119.578Z" fill="#263238"/>
<path d="M173.694 119.208C173.642 119.624 173.376 119.931 173.115 119.902C172.855 119.873 172.676 119.514 172.734 119.104C172.791 118.693 173.052 118.381 173.312 118.41C173.572 118.439 173.752 118.774 173.694 119.208Z" fill="#263238"/>
<path d="M175.024 119.694C174.327 120.764 173.491 121.737 172.537 122.586C173.15 123.228 174.416 123.054 174.416 123.054L175.024 119.694Z" fill="#ED893E"/>
<path opacity="0.4" d="M170.709 119.312C170.623 119.971 171.288 120.521 172.207 120.636C173.127 120.752 173.977 120.249 174.058 119.59" fill="#407BFF"/>
<path opacity="0.4" d="M176.175 119.925C176.048 120.579 176.69 121.168 177.592 121.342C178.494 121.516 179.379 121.053 179.5 120.405" fill="#407BFF"/>
<path d="M177.95 121.521C177.846 121.527 177.742 121.527 177.638 121.521C177.193 121.468 176.776 121.281 176.441 120.983C176.295 120.859 176.181 120.7 176.108 120.522C176.036 120.344 176.007 120.151 176.024 119.96C175.731 119.832 175.418 119.754 175.099 119.728C174.778 119.648 174.442 119.648 174.122 119.728C174.041 120.434 173.162 120.92 172.178 120.798C171.734 120.75 171.315 120.564 170.981 120.266C170.836 120.141 170.722 119.983 170.65 119.805C170.577 119.627 170.548 119.434 170.565 119.243L170.842 119.277C170.831 119.425 170.855 119.574 170.912 119.711C170.969 119.847 171.058 119.969 171.172 120.064C171.463 120.32 171.827 120.48 172.213 120.521C173.046 120.631 173.786 120.243 173.861 119.665C173.902 119.341 174.573 119.364 175.128 119.434C175.683 119.503 176.342 119.659 176.285 119.977C176.272 120.125 176.296 120.274 176.353 120.411C176.411 120.548 176.5 120.669 176.614 120.764C176.909 121.017 177.272 121.178 177.657 121.227C178.043 121.277 178.434 121.212 178.783 121.041C178.918 120.979 179.035 120.884 179.126 120.767C179.217 120.649 179.278 120.511 179.304 120.365V120.226L186.44 121.145L186.406 121.423L179.535 120.538C179.485 120.699 179.403 120.848 179.293 120.977C179.184 121.105 179.05 121.209 178.899 121.284C178.606 121.439 178.281 121.52 177.95 121.521Z" fill="#263238"/>
<path d="M180.229 117.762C180.27 117.762 180.31 117.75 180.345 117.727C180.401 117.695 180.442 117.641 180.459 117.578C180.477 117.516 180.469 117.449 180.437 117.392C180.258 117.055 179.998 116.769 179.682 116.557C179.365 116.345 179 116.214 178.621 116.177C178.556 116.174 178.492 116.197 178.444 116.24C178.395 116.283 178.365 116.344 178.361 116.409C178.358 116.472 178.38 116.534 178.422 116.582C178.464 116.629 178.523 116.659 178.586 116.663C178.887 116.698 179.174 116.806 179.423 116.978C179.672 117.149 179.875 117.379 180.015 117.646C180.037 117.683 180.068 117.713 180.106 117.734C180.144 117.754 180.186 117.764 180.229 117.762Z" fill="#263238"/>
<path d="M172.167 117.109C172.207 117.113 172.247 117.107 172.284 117.092C172.322 117.077 172.355 117.053 172.381 117.022C172.568 116.777 172.81 116.579 173.087 116.445C173.364 116.31 173.669 116.242 173.977 116.247C174.009 116.25 174.041 116.247 174.072 116.238C174.103 116.228 174.131 116.213 174.156 116.192C174.181 116.172 174.201 116.147 174.216 116.119C174.231 116.09 174.24 116.059 174.243 116.027C174.247 115.996 174.245 115.964 174.237 115.934C174.228 115.904 174.214 115.875 174.195 115.851C174.175 115.826 174.151 115.805 174.124 115.79C174.096 115.774 174.066 115.765 174.035 115.761C173.646 115.751 173.261 115.832 172.909 115.998C172.558 116.163 172.25 116.409 172.011 116.715C171.969 116.765 171.949 116.828 171.955 116.892C171.96 116.956 171.991 117.015 172.04 117.057C172.077 117.084 172.121 117.102 172.167 117.109Z" fill="#263238"/>
<path d="M203.126 232.078C198.701 209.337 197.706 191.553 193.508 182.918L172.855 185.232C172.855 185.232 185.156 219.117 191.165 233.582C197.406 248.618 209.724 274.309 209.724 274.309H220.042C220.042 274.309 210.413 242.436 203.126 232.078Z" fill="#263238"/>
<path d="M137.663 145.991L135.43 144.58C135.068 144.346 134.636 144.246 134.208 144.296C133.779 144.345 133.382 144.542 133.082 144.852L131.567 146.448C131.404 146.62 131.278 146.824 131.196 147.047C131.115 147.27 131.081 147.507 131.095 147.744C131.109 147.981 131.171 148.213 131.278 148.424C131.385 148.636 131.535 148.824 131.717 148.975L132.799 149.901C133.74 150.698 134.837 151.289 136.02 151.636L139.288 152.602L141.434 150.288C142.087 147.877 137.663 145.991 137.663 145.991Z" fill="#FFB573"/>
<path d="M170.709 144.91C169.9 146.888 169.107 148.727 168.246 150.606C167.384 152.486 166.511 154.342 165.545 156.187C164.579 158.032 163.549 159.866 162.381 161.705C161.803 162.619 161.161 163.532 160.432 164.452C159.649 165.466 158.757 166.391 157.772 167.211C157.122 167.742 156.404 168.185 155.638 168.529C155.395 168.622 155.169 168.714 154.903 168.795L154.498 168.905C154.295 168.955 154.088 168.992 153.88 169.015C153.175 169.094 152.461 169.044 151.774 168.865C150.916 168.624 150.1 168.252 149.357 167.76C148.8 167.413 148.269 167.026 147.766 166.603C146.097 165.146 144.559 163.546 143.169 161.82C141.821 160.201 140.549 158.576 139.328 156.916C138.108 155.256 136.934 153.625 135.731 151.884L142.128 147.755C144.146 151.014 146.38 154.134 148.813 157.095C149.932 158.467 151.164 159.742 152.497 160.907C152.756 161.118 153.028 161.311 153.313 161.485C153.527 161.63 153.741 161.687 153.59 161.635C153.387 161.579 153.174 161.568 152.966 161.601C152.882 161.608 152.798 161.624 152.717 161.647H152.671C152.642 161.647 152.642 161.647 152.636 161.647C152.768 161.561 152.893 161.466 153.012 161.364C153.54 160.884 154.019 160.354 154.441 159.779C154.932 159.12 155.424 158.379 155.892 157.61C156.85 156.011 157.722 154.362 158.506 152.671C159.316 150.936 160.097 149.201 160.82 147.397C161.543 145.592 162.231 143.759 162.815 142.006L170.709 144.91Z" fill="#407BFF"/>
<g opacity="0.6">
<path d="M170.709 144.91C169.9 146.888 169.107 148.727 168.246 150.606C167.384 152.486 166.511 154.342 165.545 156.187C164.579 158.032 163.549 159.866 162.381 161.705C161.803 162.619 161.161 163.532 160.432 164.452C159.649 165.466 158.757 166.391 157.772 167.211C157.122 167.742 156.404 168.185 155.638 168.529C155.395 168.622 155.169 168.714 154.903 168.795L154.498 168.905C154.295 168.955 154.088 168.992 153.88 169.015C153.175 169.094 152.461 169.044 151.774 168.865C150.916 168.624 150.1 168.252 149.357 167.76C148.8 167.413 148.269 167.026 147.766 166.603C146.097 165.146 144.559 163.546 143.169 161.82C141.821 160.201 140.549 158.576 139.328 156.916C138.108 155.256 136.934 153.625 135.731 151.884L142.128 147.755C144.146 151.014 146.38 154.134 148.813 157.095C149.932 158.467 151.164 159.742 152.497 160.907C152.756 161.118 153.028 161.311 153.313 161.485C153.527 161.63 153.741 161.687 153.59 161.635C153.387 161.579 153.174 161.568 152.966 161.601C152.882 161.608 152.798 161.624 152.717 161.647H152.671C152.642 161.647 152.642 161.647 152.636 161.647C152.768 161.561 152.893 161.466 153.012 161.364C153.54 160.884 154.019 160.354 154.441 159.779C154.932 159.12 155.424 158.379 155.892 157.61C156.85 156.011 157.722 154.362 158.506 152.671C159.316 150.936 160.097 149.201 160.82 147.397C161.543 145.592 162.231 143.759 162.815 142.006L170.709 144.91Z" fill="white"/>
</g>
<path d="M185.85 136.032C183.682 140.08 175.961 155.505 175.024 165.024C171.606 156.349 172.352 137.16 172.352 137.16C169.916 137.397 167.526 137.981 165.256 138.895C164.524 139.195 163.889 139.693 163.423 140.332C162.956 140.971 162.676 141.727 162.613 142.515C161.947 152.444 162.261 162.415 163.549 172.283C165.95 190.963 168.176 220.013 168.176 220.013C168.176 220.013 187.291 219.215 202.038 216.104C200.24 201.825 194.086 177.893 194.028 171.485C193.959 163.237 194.15 147.113 194.41 140.381C194.454 139.431 194.156 138.496 193.57 137.746C192.985 136.996 192.15 136.48 191.218 136.292C189.448 135.964 187.643 135.877 185.85 136.032Z" fill="#407BFF"/>
<path opacity="0.7" d="M185.85 136.032C183.682 140.08 175.961 155.505 175.024 165.025C171.606 156.349 172.352 137.16 172.352 137.16C169.916 137.397 167.526 137.982 165.256 138.895C164.524 139.196 163.889 139.693 163.423 140.332C162.956 140.971 162.676 141.727 162.613 142.515C161.947 152.445 162.261 162.415 163.549 172.283C165.95 190.963 168.176 220.014 168.176 220.014C168.176 220.014 187.291 219.215 202.038 216.104C200.24 201.825 194.086 177.893 194.028 171.485C193.959 163.237 194.15 147.107 194.41 140.375C194.465 139.454 194.192 138.543 193.641 137.802C193.09 137.062 192.295 136.539 191.397 136.327C189.571 135.969 187.704 135.87 185.85 136.032Z" fill="white"/>
<path d="M181.345 216.914C178.025 198.597 175.394 171.722 175.18 168.489H175.475C175.689 171.722 178.326 198.563 181.64 216.879L181.345 216.914Z" fill="white"/>
<path d="M179.691 184.33H162.063C161.707 184.314 161.366 184.183 161.091 183.956C160.816 183.73 160.621 183.421 160.536 183.075L154.643 155.678C154.6 155.529 154.593 155.371 154.623 155.218C154.652 155.066 154.718 154.922 154.814 154.799C154.91 154.677 155.033 154.579 155.175 154.514C155.316 154.448 155.471 154.417 155.626 154.423H173.248C173.605 154.438 173.948 154.569 174.224 154.795C174.501 155.021 174.696 155.331 174.781 155.678L180.674 183.075C180.717 183.224 180.725 183.382 180.695 183.535C180.665 183.687 180.6 183.831 180.504 183.953C180.408 184.076 180.284 184.174 180.143 184.239C180.001 184.305 179.847 184.336 179.691 184.33Z" fill="white"/>
<path d="M179.142 184.561H161.213C160.851 184.544 160.503 184.41 160.223 184.18C159.943 183.95 159.744 183.635 159.657 183.283L153.66 155.424C153.617 155.271 153.611 155.111 153.642 154.955C153.673 154.799 153.74 154.653 153.838 154.529C153.936 154.404 154.062 154.305 154.206 154.238C154.35 154.171 154.508 154.14 154.666 154.146H172.595C172.957 154.163 173.305 154.296 173.585 154.526C173.865 154.757 174.064 155.072 174.151 155.424L180.142 183.283C180.186 183.435 180.194 183.596 180.164 183.751C180.134 183.907 180.067 184.053 179.969 184.178C179.871 184.303 179.746 184.403 179.602 184.469C179.458 184.536 179.3 184.567 179.142 184.561Z" fill="#407BFF"/>
<path d="M181.195 168.842L176.736 168.674C176.2 168.655 175.666 168.75 175.169 168.951L172.855 169.877C172.638 169.963 172.441 170.092 172.275 170.256C172.109 170.42 171.977 170.616 171.889 170.832C171.8 171.048 171.756 171.279 171.759 171.513C171.762 171.746 171.812 171.977 171.907 172.19L172.832 174.191C173.019 174.579 173.333 174.891 173.723 175.075C174.113 175.258 174.554 175.301 174.972 175.198L177.522 174.561C177.522 174.561 182.311 174.18 182.485 171.67L181.195 168.842Z" fill="#FFB573"/>
<path d="M193.508 138.513C194.612 140.248 195.624 141.833 196.619 143.533C197.614 145.234 198.591 146.917 199.511 148.675C200.431 150.433 201.304 152.249 202.096 154.192C202.508 155.21 202.859 156.251 203.149 157.309C203.522 158.6 203.693 159.94 203.658 161.283V161.508C203.66 161.547 203.66 161.585 203.658 161.624C203.658 161.832 203.6 162.04 203.559 162.248C203.519 162.457 203.467 162.619 203.409 162.827C203.351 163.035 203.288 163.145 203.224 163.307C203.003 163.807 202.719 164.278 202.38 164.706C201.907 165.297 201.37 165.832 200.778 166.303C199.868 167.019 198.901 167.659 197.886 168.217C196.1 169.193 194.262 170.07 192.38 170.843C190.558 171.618 188.742 172.323 186.915 172.988C185.087 173.653 183.288 174.295 181.386 174.932L179.182 167.644C180.917 167.17 182.687 166.586 184.416 165.996C186.145 165.406 187.886 164.747 189.529 164.059C191.141 163.393 192.713 162.634 194.236 161.786C194.88 161.429 195.493 161.021 196.07 160.565C196.221 160.451 196.358 160.316 196.475 160.166C196.425 160.223 196.386 160.287 196.359 160.357C196.359 160.409 196.33 160.444 196.301 160.508C196.278 160.576 196.261 160.645 196.249 160.716C196.225 160.805 196.209 160.896 196.203 160.988C196.203 161.022 196.203 161.028 196.203 161.017V160.976C196.162 160.427 196.056 159.886 195.885 159.363C195.653 158.605 195.379 157.862 195.063 157.136C194.356 155.535 193.557 153.977 192.669 152.469C191.767 150.919 190.807 149.369 189.777 147.842C188.748 146.315 187.695 144.794 186.637 143.406L193.508 138.513Z" fill="#407BFF"/>
<g opacity="0.7">
<path d="M193.508 138.513C194.612 140.248 195.624 141.833 196.619 143.533C197.614 145.234 198.591 146.917 199.511 148.675C200.431 150.433 201.304 152.249 202.096 154.192C202.508 155.21 202.859 156.251 203.149 157.309C203.522 158.6 203.693 159.94 203.658 161.283V161.508C203.66 161.547 203.66 161.585 203.658 161.624C203.658 161.832 203.6 162.04 203.559 162.248C203.519 162.457 203.467 162.619 203.409 162.827C203.351 163.035 203.288 163.145 203.224 163.307C203.003 163.807 202.719 164.278 202.38 164.706C201.907 165.297 201.37 165.832 200.778 166.303C199.868 167.019 198.901 167.659 197.886 168.217C196.1 169.193 194.262 170.07 192.38 170.843C190.558 171.618 188.742 172.323 186.915 172.988C185.087 173.653 183.288 174.295 181.386 174.932L179.182 167.644C180.917 167.17 182.687 166.586 184.416 165.996C186.145 165.406 187.886 164.747 189.529 164.059C191.141 163.393 192.713 162.634 194.236 161.786C194.88 161.429 195.493 161.021 196.07 160.565C196.221 160.451 196.358 160.316 196.475 160.166C196.425 160.223 196.386 160.287 196.359 160.357C196.359 160.409 196.33 160.444 196.301 160.508C196.278 160.576 196.261 160.645 196.249 160.716C196.225 160.805 196.209 160.896 196.203 160.988C196.203 161.022 196.203 161.028 196.203 161.017V160.976C196.162 160.427 196.056 159.886 195.885 159.363C195.653 158.605 195.379 157.862 195.063 157.136C194.356 155.535 193.557 153.977 192.669 152.469C191.767 150.919 190.807 149.369 189.777 147.842C188.748 146.315 187.695 144.794 186.637 143.406L193.508 138.513Z" fill="white"/>
</g>
<path d="M187.655 158.582C187.616 158.581 187.579 158.571 187.545 158.552C187.512 158.532 187.484 158.505 187.464 158.472C187.447 158.447 187.436 158.418 187.43 158.388C187.424 158.358 187.425 158.328 187.431 158.298C187.438 158.268 187.45 158.24 187.468 158.215C187.485 158.191 187.508 158.17 187.534 158.154L188.436 157.575C189.278 157.044 189.939 156.27 190.331 155.355C190.724 154.44 190.829 153.427 190.633 152.451L188.817 143.256C188.685 142.568 188.324 141.945 187.793 141.488C187.262 141.031 186.593 140.767 185.893 140.737C185.194 140.708 184.504 140.915 183.937 141.326C183.37 141.737 182.958 142.327 182.768 143.001L180.194 152.018C179.913 152.971 179.929 153.987 180.239 154.931C180.548 155.875 181.138 156.702 181.929 157.304L182.785 157.951C182.834 157.989 182.865 158.044 182.872 158.105C182.88 158.166 182.863 158.227 182.826 158.275C182.808 158.299 182.785 158.319 182.759 158.334C182.733 158.348 182.705 158.358 182.675 158.362C182.646 158.366 182.616 158.363 182.587 158.356C182.558 158.348 182.531 158.334 182.508 158.316L181.698 157.674C180.828 157.019 180.178 156.115 179.834 155.082C179.49 154.049 179.469 152.936 179.772 151.89L182.352 142.874C182.573 142.104 183.047 141.431 183.697 140.962C184.346 140.494 185.135 140.257 185.935 140.291C186.736 140.324 187.502 140.625 188.11 141.146C188.719 141.667 189.135 142.377 189.292 143.163L191.108 152.365C191.322 153.431 191.207 154.537 190.779 155.537C190.35 156.537 189.628 157.383 188.708 157.963L187.8 158.541C187.779 158.557 187.756 158.569 187.731 158.576C187.707 158.583 187.681 158.585 187.655 158.582Z" fill="#263238"/>
<path d="M189.043 143.446L182.548 143.175C182.518 143.173 182.488 143.166 182.461 143.153C182.433 143.14 182.408 143.121 182.388 143.099C182.368 143.076 182.352 143.05 182.342 143.021C182.331 142.992 182.327 142.962 182.328 142.932C182.334 142.871 182.362 142.815 182.407 142.775C182.452 142.734 182.511 142.712 182.571 142.712L189.06 142.984C189.091 142.985 189.121 142.993 189.148 143.006C189.176 143.019 189.2 143.037 189.221 143.06C189.241 143.082 189.257 143.109 189.267 143.137C189.277 143.166 189.282 143.196 189.28 143.227C189.279 143.257 189.273 143.286 189.26 143.314C189.248 143.341 189.23 143.366 189.208 143.387C189.186 143.407 189.16 143.423 189.132 143.433C189.103 143.443 189.073 143.448 189.043 143.446Z" fill="#263238"/>
<path d="M185.885 140.751C185.825 140.75 185.768 140.726 185.725 140.684C185.682 140.642 185.657 140.586 185.654 140.526C185.654 139.369 185.295 137.362 184.214 136.923C184.184 136.913 184.156 136.896 184.133 136.875C184.109 136.854 184.09 136.829 184.077 136.8C184.064 136.771 184.057 136.74 184.056 136.709C184.055 136.677 184.061 136.646 184.073 136.616C184.085 136.587 184.103 136.561 184.125 136.538C184.148 136.516 184.174 136.499 184.204 136.488C184.233 136.476 184.265 136.471 184.296 136.472C184.328 136.473 184.359 136.481 184.387 136.495C185.989 137.154 186.122 140.173 186.122 140.543C186.122 140.604 186.099 140.663 186.057 140.707C186.015 140.751 185.958 140.777 185.897 140.78L185.885 140.751Z" fill="#263238"/>
<path d="M166.019 148.611H165.973C165.913 148.598 165.861 148.563 165.827 148.512C165.794 148.461 165.782 148.399 165.794 148.339C166.557 144.539 169.715 138.542 172.497 136.772C172.522 136.757 172.55 136.746 172.58 136.741C172.609 136.736 172.639 136.738 172.668 136.745C172.698 136.752 172.725 136.764 172.749 136.782C172.773 136.8 172.793 136.822 172.809 136.847C172.826 136.872 172.837 136.9 172.843 136.93C172.849 136.959 172.848 136.989 172.842 137.019C172.835 137.048 172.823 137.075 172.805 137.1C172.788 137.124 172.765 137.144 172.739 137.16C170.05 138.86 166.985 144.678 166.245 148.42C166.235 148.473 166.208 148.521 166.166 148.556C166.125 148.591 166.073 148.61 166.019 148.611Z" fill="#263238"/>
<path d="M167.916 149.207C167.557 150.126 166.759 150.681 166.181 150.444C165.602 150.207 165.377 149.288 165.735 148.345C166.094 147.402 166.892 146.87 167.47 147.113C168.049 147.356 168.28 148.287 167.916 149.207Z" fill="white"/>
<path d="M183.184 158.165C183.184 158.593 182.918 158.935 182.635 158.923C182.351 158.911 182.132 158.553 182.149 158.119C182.166 157.685 182.415 157.344 182.698 157.361C182.982 157.379 183.202 157.732 183.184 158.165Z" fill="white"/>
<path d="M188.17 158.374C188.17 158.802 187.909 159.143 187.62 159.131C187.331 159.12 187.123 158.761 187.14 158.327C187.158 157.893 187.4 157.558 187.719 157.57C188.037 157.581 188.187 157.957 188.17 158.374Z" fill="white"/>
<path d="M286.245 150.352L285.667 150.317C285.763 149.086 285.602 147.848 285.195 146.682C284.787 145.516 284.142 144.448 283.299 143.544C282.457 142.641 281.436 141.923 280.302 141.435C279.167 140.947 277.943 140.701 276.708 140.711V140.132C278.022 140.121 279.325 140.383 280.532 140.902C281.74 141.421 282.826 142.185 283.723 143.146C284.62 144.107 285.307 145.243 285.741 146.484C286.175 147.724 286.347 149.041 286.245 150.352Z" fill="#407BFF"/>
<path d="M286.55 152.777L286.215 157.565L286.793 157.606L287.129 152.817L286.55 152.777Z" fill="#407BFF"/>
<path d="M276.708 142.157H236.802C234.623 142.192 232.535 143.038 230.944 144.528C229.354 146.018 228.374 148.046 228.197 150.219L227.832 155.592C227.75 156.625 227.883 157.665 228.224 158.645C228.566 159.624 229.107 160.521 229.814 161.28C230.522 162.038 231.379 162.641 232.333 163.05C233.286 163.459 234.314 163.664 235.351 163.654H275.257L282.995 168.425L284.221 150.219C284.305 149.185 284.172 148.146 283.831 147.166C283.491 146.187 282.95 145.289 282.243 144.531C281.536 143.772 280.679 143.169 279.726 142.76C278.773 142.352 277.745 142.146 276.708 142.157Z" fill="#407BFF"/>
<path d="M274.684 149.854H237.722V151.196H274.684V149.854Z" fill="white"/>
<path d="M274.36 154.614H246.918V155.956H274.36V154.614Z" fill="white"/>
<path d="M216.676 170.9H257.461C258.521 170.889 259.572 171.099 260.547 171.516C261.522 171.934 262.399 172.55 263.122 173.325C263.846 174.101 264.399 175.019 264.748 176.02C265.096 177.022 265.232 178.085 265.147 179.142L264.777 184.636C264.594 186.856 263.592 188.929 261.967 190.452C260.341 191.975 258.208 192.839 255.98 192.877H215.19L206.619 197.764L207.879 179.142C208.061 176.921 209.063 174.848 210.689 173.325C212.314 171.802 214.449 170.937 216.676 170.9Z" fill="white"/>
<path opacity="0.15" d="M216.676 170.9H257.461C258.521 170.889 259.572 171.099 260.547 171.516C261.522 171.934 262.399 172.55 263.122 173.325C263.846 174.101 264.399 175.019 264.748 176.02C265.096 177.022 265.232 178.085 265.147 179.142L264.777 184.636C264.594 186.856 263.592 188.929 261.967 190.452C260.341 191.975 258.208 192.839 255.98 192.877H215.19L206.619 197.764L207.879 179.142C208.061 176.921 209.063 174.848 210.689 173.325C212.314 171.802 214.449 170.937 216.676 170.9Z" fill="#407BFF"/>
<path opacity="0.5" d="M255.39 178.772H217.59V180.148H255.39V178.772Z" fill="#407BFF"/>
<path opacity="0.5" d="M232.199 183.635H217.26V185.012H232.199V183.635Z" fill="#407BFF"/>
<path opacity="0.5" d="M245.403 183.635H235.86V185.012H245.403V183.635Z" fill="#407BFF"/>
</svg>
